<?xml version="1.0" encoding="UTF-8"?>
<svg version="1.1" xmlns="http://www.w3.org/2000/svg" width="1066" height="432">
<path d="M0 0 C351.78 0 703.56 0 1066 0 C1066 142.56 1066 285.12 1066 432 C714.22 432 362.44 432 0 432 C0 289.44 0 146.88 0 0 Z " fill="#FEFEFE" transform="translate(0,0)"/>
<path d="M0 0 C0.2475 0.86625 0.495 1.7325 0.75 2.625 C3.06650956 8.87957581 6.0280717 12.89919107 12 16 C17.08142794 17.32468997 21.8696668 17.1286733 27 16 C27.66 15.34 28.32 14.68 29 14 C31.625 13.875 31.625 13.875 34 14 C34.33 13.01 34.66 12.02 35 11 C36.32407669 10.31513275 37.65909241 9.65129797 39 9 C39.66 8.34 40.32 7.68 41 7 C42.95216435 5.04783565 44.53199953 4.15173355 47 3 C45.67296379 11.55201116 42.01880768 18.44593101 38 26 C34.37 26 30.74 26 27 26 C27 28.31 27 30.62 27 33 C28.03447266 32.80083984 28.03447266 32.80083984 29.08984375 32.59765625 C30.02957031 32.42105469 30.96929687 32.24445313 31.9375 32.0625 C32.85402344 31.88847656 33.77054688 31.71445313 34.71484375 31.53515625 C42.1016678 30.33183295 49.35557123 29.84175149 56.8359375 29.83203125 C58.21418198 29.82703865 58.21418198 29.82703865 59.62026978 29.82194519 C61.55820216 29.81691019 63.49614311 29.8145358 65.43408203 29.81469727 C68.33251101 29.81253175 71.23054543 29.79439708 74.12890625 29.77539062 C103.0660028 29.6886676 103.0660028 29.6886676 113 33 C113 30.69 113 28.38 113 26 C111.1746875 26.2475 111.1746875 26.2475 109.3125 26.5 C106.63537123 26.49055687 105.46053165 26.43780412 103.49609375 24.5703125 C102.1296478 22.43711475 101.04322042 20.30919253 100 18 C99.41025391 16.70449219 99.41025391 16.70449219 98.80859375 15.3828125 C97.06211726 11.28133113 96 8.52272778 96 4 C99.9841448 5.32804827 102.14418343 6.9599372 105 10 C111.29896314 15.43014064 118.78647945 17.37817649 127 17 C132.92082239 15.39707008 136.65564682 12.01652977 140 7 C140.89908582 4.66049396 141.45877467 2.46011513 142 0 C151.2858079 1.16072599 159.02576399 7.01201982 164.73046875 14.171875 C170.45994096 22.37704507 172.55377509 28.99102799 172 39 C171.11248047 39.14695312 171.11248047 39.14695312 170.20703125 39.296875 C165.15797064 40.2523253 161.59567846 41.10468167 158 45 C156.17603268 47.92542127 154.54660393 50.91995472 153 54 C144.96448307 54.80355169 138.36623855 51.89683539 131 49 C131.00523682 49.58491211 131.01047363 50.16982422 131.01586914 50.77246094 C131.03670158 53.43162963 131.04968007 56.09078111 131.0625 58.75 C131.07087891 59.67039063 131.07925781 60.59078125 131.08789062 61.5390625 C131.09111328 62.42851562 131.09433594 63.31796875 131.09765625 64.234375 C131.10289307 65.05131836 131.10812988 65.86826172 131.11352539 66.70996094 C131 69 131 69 130.36889648 71.17285156 C130.24716064 71.77581055 130.1254248 72.37876953 130 73 C130.66 73.66 131.32 74.32 132 75 C132.24291992 77.61035156 132.24291992 77.61035156 132.23046875 80.890625 C132.22853516 82.07527344 132.22660156 83.25992188 132.22460938 84.48046875 C132.21236328 85.72441406 132.20011719 86.96835938 132.1875 88.25 C132.1865332 90.09271484 132.1865332 90.09271484 132.18554688 91.97265625 C132.1406608 101.17928823 132.1406608 101.17928823 131.48901367 104.98144531 C130.95221231 108.29498103 130.93654577 111.36402199 131.0078125 114.71875 C131.02457031 115.98074219 131.04132813 117.24273437 131.05859375 118.54296875 C131.10286698 121.18113222 131.15495168 123.81917615 131.21484375 126.45703125 C131.22902344 127.71902344 131.24320313 128.98101562 131.2578125 130.28125 C131.2798877 131.42658203 131.30196289 132.57191406 131.32470703 133.75195312 C130.95818597 137.4182661 129.82490963 139.82697517 128 143 C129.03125 142.835 130.0625 142.67 131.125 142.5 C135 143 135 143 136.765625 144.7109375 C140.57431405 149.83233006 142.16367109 152.98441361 142.25 159.4375 C142.28867187 161.16806641 142.28867187 161.16806641 142.328125 162.93359375 C142 166 142 166 140.484375 167.91015625 C139.74960937 168.44962891 139.74960937 168.44962891 139 169 C138.72027344 168.46890625 138.44054687 167.9378125 138.15234375 167.390625 C134.35308624 160.69611337 130.50326124 157.94464877 123.0625 155.75 C122.051875 155.5025 121.04125 155.255 120 155 C120.875 149.25 120.875 149.25 122 147 C121.41734375 147.25394531 120.8346875 147.50789062 120.234375 147.76953125 C108.58661409 152.65939314 96.95429815 155.14235006 84.3515625 155.203125 C83.42137299 155.20882507 82.49118347 155.21452515 81.5328064 155.22039795 C79.56436285 155.22982175 77.59590372 155.23637149 75.62744141 155.24023438 C72.66930099 155.24985591 69.71188141 155.28086919 66.75390625 155.3125 C56.71723471 155.36780777 47.29770631 154.93026363 37.48583984 152.74511719 C29.7146172 150.90394569 29.7146172 150.90394569 22 152 C20.8936781 150.43902526 19.79004215 148.87614673 18.6875 147.3125 C18.07261719 146.44238281 17.45773438 145.57226562 16.82421875 144.67578125 C16.22222656 143.79277344 15.62023437 142.90976562 15 142 C14.2112146 140.88890869 14.2112146 140.88890869 13.40649414 139.75537109 C11.67604708 136.36536493 11.64172231 134.0325812 11.671875 130.23828125 C11.67703125 128.95501953 11.6821875 127.67175781 11.6875 126.34960938 C11.6978125 125.68727295 11.708125 125.02493652 11.71875 124.3425293 C11.7500655 122.30824529 11.75974139 120.27473622 11.765625 118.24023438 C11.84567812 108.30864375 11.84567812 108.30864375 13 106 C12.67 105.34 12.34 104.68 12 104 C11.91426606 101.74879258 11.89287812 99.49500697 11.90234375 97.2421875 C11.9037587 96.57913605 11.90517365 95.91608459 11.90663147 95.23294067 C11.91223246 93.11358137 11.924785 90.99432741 11.9375 88.875 C11.94251488 87.43880361 11.94707781 86.00260556 11.95117188 84.56640625 C11.96220218 81.04423655 11.97946741 77.52212855 12 74 C12.66 74 13.32 74 14 74 C13.67620361 73.30922363 13.35240723 72.61844727 13.01879883 71.90673828 C11.10290883 66.44050625 11.67305977 60.61065754 11.6875 54.875 C11.67138672 53.58722656 11.65527344 52.29945313 11.63867188 50.97265625 C11.63802734 49.74160156 11.63738281 48.51054687 11.63671875 47.2421875 C11.63373779 46.1166748 11.63075684 44.99116211 11.62768555 43.83154297 C12 41 12 41 15 38 C11.04 37.67 7.08 37.34 3 37 C3 41.95 3 46.9 3 52 C-1.84241633 53.33583899 -5.93437617 54.25328119 -11 54 C-11.30292969 53.39671875 -11.60585937 52.7934375 -11.91796875 52.171875 C-15.33179409 45.59412126 -15.33179409 45.59412126 -21 41 C-23.97273265 40.1327441 -26.94626269 39.50562971 -30 39 C-30.79499883 28.46626551 -26.99572805 20.23556879 -20.21484375 12.29296875 C-15.02523549 6.92030553 -7.85066874 0 0 0 Z " fill="#B74928" transform="translate(145,114)"/>
<path d="M0 0 C50.03777336 0 50.03777336 0 57.4375 5.96484375 C57.953125 6.61582031 58.46875 7.26679688 59 7.9375 C59.53625 8.58589844 60.0725 9.23429688 60.625 9.90234375 C64.77676473 16.23614393 64.71253419 22.63417784 64 30 C62.32916212 35.95235996 59.03640565 39.57524416 54 43 C50.625 44.3125 50.625 44.3125 48 45 C48.70125 45.61875 49.4025 46.2375 50.125 46.875 C57.51522408 54.36512704 60.75083032 64.12399422 63.875 73.9375 C64.2771875 75.15501953 64.679375 76.37253906 65.09375 77.62695312 C68 86.54834981 68 86.54834981 68 90 C62.06 90 56.12 90 50 90 C44.10714286 74.59821429 44.10714286 74.59821429 41.875 66.875 C40.49505917 62.2406987 39.09912401 58.71894881 36 55 C30.60041154 52.30020577 24.02516699 53.37657294 18 53 C18 65.21 18 77.42 18 90 C12.06 90 6.12 90 0 90 C0 60.3 0 30.6 0 0 Z " fill="#B74828" transform="translate(384,163)"/>
<path d="M0 0 C0.88268555 -0.01023193 1.76537109 -0.02046387 2.67480469 -0.03100586 C12.72186225 0.10316758 21.73977648 3.20654252 29.171875 10.10546875 C32.62667116 13.83171318 33.74587892 16.29606219 34.375 21.4375 C32.60962904 22.61241582 30.83750287 23.77718684 29.0625 24.9375 C28.07636719 25.5871875 27.09023438 26.236875 26.07421875 26.90625 C23.375 28.4375 23.375 28.4375 20.375 28.4375 C19.0209068 26.45149663 17.69042376 24.44932457 16.375 22.4375 C9.98368426 16.68531584 5.37844899 15.98838177 -3.1328125 16.12109375 C-9.07438355 16.65942401 -12.71411496 18.5782605 -16.9375 22.6875 C-23.63995173 33.61001394 -24.5177375 47.60145604 -21.87109375 59.95703125 C-19.55778411 66.5885189 -16.94925743 71.45434225 -10.5625 74.75 C-3.58061962 77.55880245 3.33061962 77.55880245 10.3125 74.75 C16.62760231 71.53053608 18.88665767 66.78277294 21.375 60.4375 C25.22525879 61.04105408 28.23601159 62.20522603 31.6875 64 C32.57050781 64.45503906 33.45351563 64.91007812 34.36328125 65.37890625 C35.02714844 65.72824219 35.69101562 66.07757813 36.375 66.4375 C35.10168417 74.66282754 30.13619066 81.8380456 23.6640625 86.96484375 C12.7531673 93.98431046 -1.57928443 94.18661434 -14.0390625 91.77734375 C-24.73118519 88.29863904 -32.08371741 81.02933971 -37.625 71.4375 C-43.62493865 58.97439215 -44.0875523 39.70412376 -40.0625 26.5625 C-35.39639174 15.45194153 -27.90498038 7.00886767 -16.875 2 C-11.30675549 0.1702086 -5.80942726 0.05217745 0 0 Z " fill="#B74727" transform="translate(699.625,161.5625)"/>
<path d="M0 0 C5.272356 4.2178848 9.60666443 10.32238957 11 17 C11.08778022 18.35595597 11.13057475 19.71542629 11.1328125 21.07421875 C11.13474609 22.19860352 11.13474609 22.19860352 11.13671875 23.34570312 C11.13285156 24.11849609 11.12898438 24.89128906 11.125 25.6875 C11.13080078 26.8640918 11.13080078 26.8640918 11.13671875 28.06445312 C11.12667749 33.87332251 11.12667749 33.87332251 10 35 C8.61839885 35.0927833 7.23211962 35.11747043 5.84741211 35.11352539 C4.96657455 35.11344986 4.085737 35.11337433 3.1782074 35.11329651 C2.22092239 35.10813522 1.26363739 35.10297394 0.27734375 35.09765625 C-0.69786728 35.0962413 -1.67307831 35.09482635 -2.67784119 35.09336853 C-5.80609143 35.08775133 -8.93427123 35.07519593 -12.0625 35.0625 C-14.17773334 35.05748722 -16.29296781 35.05292393 -18.40820312 35.04882812 C-23.60549296 35.03777631 -28.80274145 35.02102146 -34 35 C-33.57466359 36.60613513 -33.1342206 38.20827446 -32.6875 39.80859375 C-32.32205078 41.14748657 -32.32205078 41.14748657 -31.94921875 42.51342773 C-30.46733031 46.39538086 -28.45549701 47.76832485 -25 50 C-20.14707207 51.61764264 -14.7766613 51.9942405 -9.89453125 50.24609375 C-6.48236108 48.39086264 -4.01506311 46.31892747 -2 43 C2.67105792 44.55701931 6.08705685 47.08447373 10 50 C7.53950815 57.17643457 3.71937379 60.46691418 -2.78125 63.984375 C-10.71036666 67.61390023 -22.89066082 67.36407262 -31.1875 64.75 C-39.58095179 61.26348926 -45.60987819 55.71016201 -49.375 47.4375 C-52.85410906 36.793785 -53.23504182 22.30882 -48.5 12.0625 C-45.43008193 7.06579495 -41.87070838 3.25620914 -37 0 C-36.06994141 -0.64775391 -36.06994141 -0.64775391 -35.12109375 -1.30859375 C-25.36590445 -6.82571647 -9.34749909 -5.84218693 0 0 Z " fill="#B64727" transform="translate(1018,188)"/>
<path d="M0 0 C5.61 0 11.22 0 17 0 C17.33 11.55 17.66 23.1 18 35 C20.64 32.69 23.28 30.38 26 28 C32.02020742 24.66160541 39.33529542 25.30664432 46 26 C51.2231403 27.88656709 55.0535279 31.30747036 58 36 C61.14184069 42.77373313 61.39969206 48.53301971 61.29296875 55.9375 C61.28872391 57.05817871 61.28447906 58.17885742 61.28010559 59.33349609 C61.26340311 62.88924874 61.22576568 66.44442059 61.1875 70 C61.17244231 72.42056469 61.1587558 74.84113833 61.14648438 77.26171875 C61.11352706 83.17470065 61.06180241 89.08725208 61 95 C55.39 95 49.78 95 44 95 C43.98541748 93.63794434 43.97083496 92.27588867 43.95581055 90.87255859 C43.89772695 85.80686527 43.82049409 80.74161175 43.73754883 75.67626953 C43.7043469 73.48623812 43.6763003 71.29612211 43.65356445 69.10595703 C43.61993191 65.9530847 43.56761052 62.80098427 43.51171875 59.6484375 C43.50532883 58.67321136 43.4989389 57.69798523 43.49235535 56.69320679 C43.37878632 51.41182793 43.01005683 47.54004312 40 43 C36.0630076 40.52531906 31.53635138 40.28841547 27 41 C21.99515287 43.45520803 20.00746402 45.86402529 18 51 C17.5485599 54.40324963 17.51181021 57.78104858 17.48828125 61.2109375 C17.47033005 62.17907379 17.45237885 63.14721008 17.43388367 64.14468384 C17.37992205 67.22141227 17.34593011 70.2979868 17.3125 73.375 C17.27931447 75.46746926 17.24482367 77.55991826 17.20898438 79.65234375 C17.12420354 84.76811789 17.05732472 89.88384751 17 95 C11.39 95 5.78 95 0 95 C0 63.65 0 32.3 0 0 Z " fill="#B74827" transform="translate(891,158)"/>
<path d="M0 0 C0.79051758 0.01087646 1.58103516 0.02175293 2.39550781 0.03295898 C8.88564081 0.2104131 14.83633933 0.46512959 19.85546875 4.9921875 C23.51022251 9.0375919 26.27528677 12.91510336 26.38134766 18.50097656 C26.40121735 19.30150452 26.42108704 20.10203247 26.44155884 20.92681885 C26.45311005 21.78112488 26.46466125 22.63543091 26.4765625 23.515625 C26.49592865 24.39780701 26.5152948 25.27998901 26.5352478 26.18890381 C26.59492848 29.00083816 26.64138283 31.8128137 26.6875 34.625 C26.72569038 36.53387181 26.76474273 38.44272659 26.8046875 40.3515625 C26.90062058 45.02590296 26.98469416 49.70032409 27.0625 54.375 C29.3725 55.035 31.6825 55.695 34.0625 56.375 C35.3896261 60.3563783 35.13165913 64.22545227 35.0625 68.375 C31.75914934 69.47611689 29.16417863 69.57726528 25.6875 69.625 C24.00527344 69.66367188 24.00527344 69.66367188 22.2890625 69.703125 C18.70814874 69.33896428 16.91398207 68.5312444 14.0625 66.375 C12.0625 63.375 12.0625 63.375 12.0625 60.375 C11.4025 61.096875 10.7425 61.81875 10.0625 62.5625 C2.90446608 69.48325103 -2.23812333 70.92715981 -12.3515625 70.84375 C-17.77232368 70.13515377 -21.70257845 68.23169046 -25.1875 64 C-25.66703125 63.43539062 -26.1465625 62.87078125 -26.640625 62.2890625 C-30.43041992 56.69569047 -30.82961954 50.94173558 -29.9375 44.375 C-27.41166579 37.84902493 -23.04073163 34.26936184 -16.74609375 31.36328125 C-12.5720019 29.89451179 -8.26401807 29.29475402 -3.90820312 28.60742188 C0.51960606 27.8477693 4.18434386 26.78111212 8.0625 24.375 C9.30300807 21.43390142 9.30300807 21.43390142 9.0625 18.375 C8.02365921 16.58886018 8.02365921 16.58886018 6.0625 15.375 C-2.35084729 13.96365826 -8.96596839 15.00825363 -15.94921875 19.8671875 C-16.60535156 20.36476562 -17.26148438 20.86234375 -17.9375 21.375 C-18.9275 22.035 -19.9175 22.695 -20.9375 23.375 C-23.2475 20.075 -25.5575 16.775 -27.9375 13.375 C-25.97220455 9.4444091 -25.28213051 8.57924467 -21.8125 6.3125 C-21.08804688 5.82652344 -20.36359375 5.34054688 -19.6171875 4.83984375 C-13.08764939 1.27048983 -7.4363859 -0.13873854 0 0 Z " fill="#B74827" transform="translate(773.9375,183.625)"/>
<path d="M0 0 C0.1457733 4.04128452 0.23423181 8.08188906 0.3125 12.125 C0.35439453 13.26710937 0.39628906 14.40921875 0.43945312 15.5859375 C0.57765493 25.09422154 0.57765493 25.09422154 -2.1640625 28.63671875 C-15.09492475 39.41243729 -36.43789065 39.50737452 -52.4519043 39.33618164 C-54.82960458 39.31232841 -57.20619223 39.31569108 -59.58398438 39.32226562 C-74.11541299 39.29698377 -91.94658671 38.9074251 -103.8125 29.3125 C-107.04772005 25.89241024 -107.12190378 24.16171874 -107.09765625 19.5546875 C-107.09443359 18.47832031 -107.09121094 17.40195313 -107.08789062 16.29296875 C-107.07951172 15.16503906 -107.07113281 14.03710938 -107.0625 12.875 C-107.05798828 11.73933594 -107.05347656 10.60367188 -107.04882812 9.43359375 C-107.03701615 6.62234362 -107.02054507 3.8111977 -107 1 C-103.14261968 1.74026828 -99.49295635 2.73957315 -95.75 3.9375 C-68.15240096 12.48625122 -29.1365775 13.5143535 -2.64453125 0.76953125 C-1 0 -1 0 0 0 Z " fill="#FDFCFB" transform="translate(270,190)"/>
<path d="M0 0 C0.14553599 3.89543877 0.23415059 7.79017651 0.3125 11.6875 C0.35439453 12.79029297 0.39628906 13.89308594 0.43945312 15.02929688 C0.56323798 23.22385419 0.56323798 23.22385419 -2.2734375 27.1328125 C-15.12671407 35.93491308 -29.7621292 37.40845074 -45 38 C-45.66854004 38.02868164 -46.33708008 38.05736328 -47.02587891 38.08691406 C-65.34535064 38.77427491 -88.62814151 39.12991326 -103.6875 27.3125 C-106.94677807 24.05322193 -106.94677807 24.05322193 -107.11352539 20.75341797 C-107.10828857 19.84221191 -107.10305176 18.93100586 -107.09765625 17.9921875 C-107.09443359 17.00605469 -107.09121094 16.01992187 -107.08789062 15.00390625 C-107.07951172 13.97136719 -107.07113281 12.93882812 -107.0625 11.875 C-107.05798828 10.83472656 -107.05347656 9.79445312 -107.04882812 8.72265625 C-107.03701952 6.14838038 -107.02055075 3.57421854 -107 1 C-103.87679118 2.02837363 -100.77369663 3.08326256 -97.6875 4.21875 C-69.89501259 13.87546173 -33.55243179 13.6971999 -6 3 C-0.77647059 0 -0.77647059 0 0 0 Z " fill="#FEFCFC" transform="translate(270,225)"/>
<path d="M0 0 C5.61 0 11.22 0 17 0 C17.01981934 1.39758545 17.03963867 2.7951709 17.06005859 4.23510742 C17.13619132 9.4255561 17.2248973 14.61572726 17.31738281 19.8059082 C17.35564079 22.05129513 17.39049921 24.29674269 17.421875 26.54223633 C17.46759417 29.77186737 17.52557807 33.00108222 17.5859375 36.23046875 C17.59748871 37.23272995 17.60903992 38.23499115 17.62094116 39.2676239 C17.64081085 40.20822159 17.66068054 41.14881927 17.68115234 42.11791992 C17.69447601 42.94176682 17.70779968 43.76561371 17.7215271 44.61442566 C18.04323703 47.37039561 18.79821162 49.50446587 20 52 C23.97399193 54.76670324 28.34336864 54.63866993 33 54 C37.56314003 51.88743517 39.51877851 49.73844819 41.39102173 45.09664917 C42.55324562 41.09523259 42.48246805 37.05036324 42.51171875 32.91015625 C42.52966995 31.96563095 42.54762115 31.02110565 42.56611633 30.04795837 C42.61998156 27.05285 42.65403858 24.05789881 42.6875 21.0625 C42.72069407 19.0227647 42.75518565 16.98305008 42.79101562 14.94335938 C42.87569435 9.96235343 42.94261872 4.98139217 43 0 C48.61 0 54.22 0 60 0 C60 22.44 60 44.88 60 68 C54.72 68 49.44 68 44 68 C44 64.7 44 61.4 44 58 C43.278125 58.7425 42.55625 59.485 41.8125 60.25 C34.68059824 67.22341506 29.96428647 69.44271001 20.08105469 69.43603516 C14.17407072 69.27860529 10.17260815 68.21676274 6 64 C1.92881852 58.85745498 -0.25843009 54.14110337 -0.22705078 47.56713867 C-0.22689972 46.50641647 -0.22674866 45.44569427 -0.22659302 44.35282898 C-0.21627045 43.2193251 -0.20594788 42.08582123 -0.1953125 40.91796875 C-0.1924826 39.74865311 -0.18965271 38.57933746 -0.18673706 37.37458801 C-0.17555562 33.64545392 -0.15045434 29.91656132 -0.125 26.1875 C-0.11496759 23.65690451 -0.10584219 21.12630526 -0.09765625 18.59570312 C-0.07562288 12.39704259 -0.04110662 6.19856222 0 0 Z " fill="#B64524" transform="translate(465,185)"/>
<path d="M0 0 C1.29035156 0.27714844 2.58070313 0.55429688 3.91015625 0.83984375 C5.62757806 1.20585168 7.34502745 1.57173024 9.0625 1.9375 C9.91005859 2.11990234 10.75761719 2.30230469 11.63085938 2.49023438 C12.46552734 2.66748047 13.30019531 2.84472656 14.16015625 3.02734375 C14.91949463 3.18968506 15.67883301 3.35202637 16.46118164 3.51928711 C23.27266724 4.80900873 29.78081307 5.14723536 36.69140625 5.1328125 C38.22485939 5.13424759 38.22485939 5.13424759 39.78929138 5.13571167 C41.94847678 5.13639016 44.10766426 5.13455899 46.2668457 5.13037109 C49.52755473 5.12505695 52.78812357 5.13030732 56.04882812 5.13671875 C76.57475509 5.44041464 76.57475509 5.44041464 96.6875 1.9375 C103.7067474 0 103.7067474 0 107 0 C107.16240455 3.06463399 107.28104814 6.12064274 107.375 9.1875 C107.42527344 10.05181641 107.47554688 10.91613281 107.52734375 11.80664062 C107.67145208 18.07535283 107.67145208 18.07535283 105.80029297 20.65209961 C88.27425317 35.77757939 53.84600902 32.12285404 32.5 30.69140625 C21.65525315 29.75242352 9.76297689 28.40988034 1.38500977 20.87695312 C-1.26069656 17.29151504 -0.73018462 13.39626565 -0.4375 9.125 C-0.40591797 8.24585938 -0.37433594 7.36671875 -0.34179688 6.4609375 C-0.25980944 4.30583913 -0.13426323 2.152474 0 0 Z " fill="#FDFCFB" transform="translate(163,162)"/>
<path d="M0 0 C3.81870187 2.3173319 3.81870187 2.3173319 5.28515625 4.38671875 C5.09563653 7.88932388 3.3649853 9.76590762 0.97265625 12.19921875 C0.37839844 12.82441406 -0.21585938 13.44960937 -0.828125 14.09375 C-2.71484375 15.38671875 -2.71484375 15.38671875 -4.78125 15.1796875 C-7.26446072 14.16132028 -9.44828937 12.81822678 -11.71484375 11.38671875 C-14.17494338 10.15666894 -15.84657181 10.25357848 -18.58984375 10.26171875 C-19.45351563 10.25914062 -20.3171875 10.2565625 -21.20703125 10.25390625 C-23.99500888 10.32154639 -23.99500888 10.32154639 -27.71484375 11.38671875 C-27.71484375 14.35671875 -27.71484375 17.32671875 -27.71484375 20.38671875 C-26.626875 20.61746094 -25.53890625 20.84820312 -24.41796875 21.0859375 C0.59714256 26.56049061 0.59714256 26.56049061 6.28515625 35.38671875 C7.74016024 38.29672672 7.49413009 40.89565205 7.53515625 44.13671875 C7.5609375 45.3484375 7.58671875 46.56015625 7.61328125 47.80859375 C7.1235856 53.14860823 5.19447491 57.10019437 1.09765625 60.57421875 C0.56785156 61.04214844 0.03804687 61.51007813 -0.5078125 61.9921875 C-6.74698323 65.93445998 -12.80349827 66.91672979 -20.08984375 66.82421875 C-21.3432959 66.81285889 -21.3432959 66.81285889 -22.62207031 66.80126953 C-31.92078403 66.55313479 -38.4641257 64.03735571 -45.4375 57.8515625 C-46.71484375 56.38671875 -46.71484375 56.38671875 -47.71484375 53.38671875 C-46.86599609 52.55527344 -46.86599609 52.55527344 -46 51.70703125 C-45.26652344 50.98257813 -44.53304687 50.258125 -43.77734375 49.51171875 C-43.04644531 48.79242188 -42.31554687 48.073125 -41.5625 47.33203125 C-39.65816376 45.51644683 -39.65816376 45.51644683 -38.71484375 43.38671875 C-35.88947311 44.58206787 -34.04409301 45.94795916 -31.65234375 47.94921875 C-27.46293438 51.42553716 -24.51885659 51.5650429 -19.21484375 51.63671875 C-17.4978125 51.67539063 -17.4978125 51.67539063 -15.74609375 51.71484375 C-12.74194772 51.64443654 -12.74194772 51.64443654 -10.84375 50.0234375 C-9.55263554 48.36640689 -9.55263554 48.36640689 -9.15234375 45.94921875 C-9.49019177 43.1296316 -9.49019177 43.1296316 -12.2578125 41.34765625 C-15.97573623 39.23873228 -19.45565019 38.28848009 -23.58984375 37.44921875 C-31.50736948 35.62785421 -37.66424286 33.54443977 -42.71484375 26.82421875 C-45.63155065 21.61369491 -45.58270147 16.18335335 -44.71484375 10.38671875 C-42.02599263 4.57880033 -36.93467137 -0.24204652 -31.02734375 -2.7578125 C-20.666686 -5.43350124 -9.64427862 -4.51694062 0 0 Z " fill="#B74827" transform="translate(585.71484375,187.61328125)"/>
<path d="M0 0 C4.61440873 3.47728658 7.18001017 6.17007228 8 12 C6.2126038 13.33905267 4.41995047 14.67109066 2.625 16 C1.62726562 16.7425 0.62953125 17.485 -0.3984375 18.25 C-3 20 -3 20 -5 20 C-5.598125 19.071875 -6.19625 18.14375 -6.8125 17.1875 C-9.13615305 13.80160555 -10.20969317 12.48316354 -14 11 C-19.04325384 10.31573943 -22.83076884 10.4260138 -27.4375 12.6875 C-32.13025857 16.92242846 -33.76868913 20.95503889 -34.23828125 27.13671875 C-34.39043421 34.41603658 -34.49062587 40.95492672 -30 47 C-26.63183753 50.20237209 -23.0816993 51.2502888 -18.5 51.5625 C-13.61300525 51.32065214 -10.35372981 49.51732638 -7 46 C-5.05447211 42.86653522 -5.05447211 42.86653522 -4 40 C0.8274799 41.41292095 4.7162359 43.42974154 9 46 C8.59730624 51.50348139 6.8384926 55.13551309 3 59 C-6.92857529 66.06243155 -16.09095448 67.03437309 -28 66 C-31.43513287 65.16060498 -34.05327107 63.92426479 -37 62 C-37.928125 61.49146484 -37.928125 61.49146484 -38.875 60.97265625 C-45.92344236 56.70409525 -49.97133417 48.79338141 -52 41 C-53.33240674 29.06272328 -53.29081512 17.98147308 -46 8 C-34.9749302 -5.28662258 -15.11279886 -8.73070475 0 0 Z " fill="#B64726" transform="translate(869,188)"/>
<path d="M0 0 C0 5.28 0 10.56 0 16 C6.27 16 12.54 16 19 16 C19 20.29 19 24.58 19 29 C12.73 29 6.46 29 0 29 C0.07403144 34.05456011 0.15688304 39.10735995 0.26245117 44.16113281 C0.29567681 45.87978965 0.32371616 47.59855499 0.34643555 49.31738281 C0.38002561 51.79018323 0.43234178 54.26199156 0.48828125 56.734375 C0.49467117 57.50118591 0.5010611 58.26799683 0.50764465 59.05804443 C0.59682607 62.30396658 0.79389552 64.63385131 2.40161133 67.48999023 C3.89885619 69.17037319 3.89885619 69.17037319 6.0859375 69.42578125 C6.84132813 69.38839844 7.59671875 69.35101563 8.375 69.3125 C9.12523437 69.28800781 9.87546875 69.26351562 10.6484375 69.23828125 C13.14547862 68.98525881 15.54858012 68.53272906 18 68 C18.70133599 69.57725347 19.385583 71.16211333 20.0625 72.75 C20.44535156 73.63171875 20.82820312 74.5134375 21.22265625 75.421875 C22.05647329 78.18729834 22.15557249 79.37840272 21 82 C13.99754168 86.66830555 4.431263 85.98900085 -3.57421875 84.53125 C-8.32977888 83.00947076 -11.55431677 80.27841685 -14 76 C-16.60447093 69.99191235 -17.42486569 64.52580958 -17.29296875 58.02734375 C-17.28872391 57.21882462 -17.28447906 56.41030548 -17.28010559 55.57728577 C-17.26350035 53.03033127 -17.22588533 50.4842096 -17.1875 47.9375 C-17.17242958 46.19597508 -17.15874534 44.45443759 -17.14648438 42.71289062 C-17.11365684 38.47494639 -17.06200455 34.23761368 -17 30 C-20.3 30 -23.6 30 -27 30 C-27 25.38 -27 20.76 -27 16 C-23.7 16 -20.4 16 -17 16 C-17 11.38 -17 6.76 -17 2 C-5.625 0 -5.625 0 0 0 Z " fill="#B64726" transform="translate(627,169)"/>
<path d="M0 0 C4.58868638 2.62099544 7.43282508 5.60194798 9.0625 10.67578125 C10.03890899 16.39221206 9.06347619 20.31354918 5.9375 25.15625 C-0.60974155 33.81803128 -8.37088579 38.87493068 -18.6953125 42.31640625 C-21.94081762 42.56960168 -25.19095048 42.54770302 -28.4453125 42.56640625 C-29.32703125 42.58703125 -30.20875 42.60765625 -31.1171875 42.62890625 C-36.77137753 42.66256214 -40.66620739 41.92714388 -45.6953125 39.31640625 C-42.14084992 36.18011574 -39.14873845 34.80088157 -34.6953125 33.31640625 C-34.0353125 32.32640625 -33.3753125 31.33640625 -32.6953125 30.31640625 C-31.36197917 29.64973958 -30.02864583 28.98307292 -28.6953125 28.31640625 C-27.9940625 27.61515625 -27.2928125 26.91390625 -26.5703125 26.19140625 C-25.9515625 25.57265625 -25.3328125 24.95390625 -24.6953125 24.31640625 C-24.0353125 24.31640625 -23.3753125 24.31640625 -22.6953125 24.31640625 C-22.7675 23.6615625 -22.8396875 23.00671875 -22.9140625 22.33203125 C-23.43920974 17.16808341 -23.83697697 12.00474468 -24.0078125 6.81640625 C-24.04519531 5.83671875 -24.08257812 4.85703125 -24.12109375 3.84765625 C-23.6953125 1.31640625 -23.6953125 1.31640625 -21.86328125 -0.46484375 C-14.74097178 -4.46873664 -7.18918029 -3.21385474 0 0 Z " fill="#B74827" transform="translate(272.6953125,274.68359375)"/>
<path d="M0 0 C0.79341797 -0.00257813 1.58683594 -0.00515625 2.40429688 -0.0078125 C5.79820876 0.04918014 8.27427006 0.25177523 11.37890625 1.68359375 C12.8125 3.5 12.8125 3.5 12.984375 6.06640625 C12.84515625 7.05511719 12.7059375 8.04382813 12.5625 9.0625 C12.38074219 10.65964844 12.38074219 10.65964844 12.1953125 12.2890625 C12.00582031 13.87847656 12.00582031 13.87847656 11.8125 15.5 C11.07292136 22.41428386 11.07292136 22.41428386 14 28.4375 C16.53539789 30.29679179 19.11347322 31.89517327 21.8125 33.5 C22.4725 34.49 23.1325 35.48 23.8125 36.5 C26.22222598 37.51324326 26.22222598 37.51324326 28.9375 38.1875 C30.30261719 38.56455078 30.30261719 38.56455078 31.6953125 38.94921875 C32.39398438 39.13097656 33.09265625 39.31273437 33.8125 39.5 C33.8125 40.16 33.8125 40.82 33.8125 41.5 C24.36940301 46.33105235 12.20608386 46.33153032 2.08984375 43.43359375 C-6.77564574 39.2353555 -14.94929185 32.76079868 -19.375 23.86328125 C-21.28340094 18.3124035 -21.11901228 13.47480603 -18.625 8.1875 C-12.92631206 1.90433124 -8.51070112 -0.30871463 0 0 Z " fill="#B74827" transform="translate(166.1875,272.5)"/>
<path d="M0 0 C0 0.66 0 1.32 0 2 C-17.86827158 6.11711327 -35.5895849 7.18357346 -53.875 7.25 C-54.6122229 7.25526703 -55.3494458 7.26053406 -56.10900879 7.26596069 C-70.12988874 7.34342951 -83.52468003 6.20228274 -97 2 C-97 1.34 -97 0.68 -97 0 C-65.35194557 -8.10103782 -31.73530605 -6.55142531 0 0 Z " fill="#FBF6F5" transform="translate(265,155)"/>
<path d="M0 0 C4.99382244 0.7833447 8.60323624 2.47588924 11.70703125 6.44140625 C15.97977678 13.12757576 17.67327356 19.54426216 16.1875 27.5 C13.91116983 30.24132874 11.23430312 31.72123055 8.1875 33.5 C7.1046875 34.7065625 7.1046875 34.7065625 6 35.9375 C4.1875 37.5 4.1875 37.5 1.8125 37.6875 C-2.84817496 35.57909942 -5.61287512 31.92163083 -7.859375 27.38671875 C-10.37868309 20.69629207 -11.06773244 13.8891276 -8.5625 7.125 C-4.32510504 0.76890756 -4.32510504 0.76890756 0 0 Z " fill="#B74929" transform="translate(116.8125,154.5)"/>
<path d="M0 0 C4.07453738 3.3337124 6.67995432 6.42847021 7.3359375 11.69921875 C7.44941384 20.38015887 5.77626104 26.53731912 0.5625 33.5 C-2.09904368 36.09662798 -3.3458984 36.79119419 -7 37 C-7.495 36.29875 -7.99 35.5975 -8.5 34.875 C-10.76530382 32.2699006 -12.39351971 31.09020316 -15.25 29.3125 C-17.66172056 27.54991544 -18.80872085 26.62354843 -19.69140625 23.74609375 C-20.01603712 17.05450902 -17.73413968 11.47027216 -14 6 C-9.83701267 1.56219444 -6.16997379 -0.72587927 0 0 Z " fill="#B74828" transform="translate(318,155)"/>
<path d="M0 0 C3.17625 -0.061875 6.3525 -0.12375 9.625 -0.1875 C11.1092749 -0.22846802 11.1092749 -0.22846802 12.62353516 -0.27026367 C17.82669214 -0.31917145 21.54756216 -0.01276945 26 3 C29.10815637 7.66223455 28.61156181 12.54015304 28 18 C25.90784488 21.67930728 24.98851981 22.6704934 21 24 C19.37280518 24.08143855 17.74248281 24.1075302 16.11328125 24.09765625 C15.26805908 24.09515869 14.42283691 24.09266113 13.55200195 24.09008789 C12.48296631 24.08098389 11.41393066 24.07187988 10.3125 24.0625 C5.2078125 24.0315625 5.2078125 24.0315625 0 24 C0 16.08 0 8.16 0 0 Z " fill="#FEFEFD" transform="translate(402,177)"/>
<path d="M0 0 C3.9303143 1.31010477 4.17008353 2.74375951 6 6.375 C7.81831627 10.21376964 7.81831627 10.21376964 10.57543945 13.33374023 C12.58005359 15.67846885 12.34350611 17.27513155 12.29296875 20.32421875 C12.28330078 21.35224609 12.27363281 22.38027344 12.26367188 23.43945312 C12.23853516 24.51130859 12.21339844 25.58316406 12.1875 26.6875 C12.16719727 28.31268555 12.16719727 28.31268555 12.14648438 29.97070312 C12.11110643 32.64763405 12.06174189 35.32356838 12 38 C5.99098349 36.20688253 0.66258697 34.02194823 -4.6875 30.75 C-5.335979 30.3573999 -5.98445801 29.9647998 -6.65258789 29.56030273 C-11.36517195 26.61157669 -14.86255545 23.65862978 -18 19 C-18 18.34 -18 17.68 -18 17 C-16.34769331 15.97644718 -14.67794736 14.98095384 -13 14 C-11.40727383 12.66012889 -9.8440769 11.28436278 -8.3125 9.875 C-4.1971831 6.09859155 -4.1971831 6.09859155 -2 5 C-1.27840576 3.35636866 -0.60648579 1.68949614 0 0 Z " fill="#B74827" transform="translate(136,178)"/>
<path d="M0 0 C3 1 3 1 4.1875 3.125 C6.3743972 6.59387142 9.01464535 8.76252001 12.16015625 11.3515625 C14 13 14 13 16 16 C18.05925139 16.72382467 18.05925139 16.72382467 20 17 C16.74496641 26.69900872 5.91006407 30.94674956 -2.64453125 35.3984375 C-5.23363644 36.6342153 -7.25728259 37.38734882 -10 38 C-11.29795877 16.25705118 -11.29795877 16.25705118 -6.6875 10 C-5.47571669 8.65084854 -4.24858036 7.31517131 -3 6 C-1.83826365 4.03706617 -0.93214014 2.08360737 0 0 Z " fill="#B74727" transform="translate(294,178)"/>
<path d="M0 0 C0.66 0 1.32 0 2 0 C2.35934632 8.22503793 2.54683269 13.91576842 -3.0625 20.375 C-7.35950409 22.75206609 -11.20054899 22.89694658 -16 22 C-19.125 19.9375 -19.125 19.9375 -21 17 C-21.625 13.5 -21.625 13.5 -21 10 C-17.37181655 5.44752647 -13.78502114 3.94445543 -8.25 2.75 C-3.76420607 2.05239535 -3.76420607 2.05239535 0 0 Z " fill="#FDF9F9" transform="translate(782,219)"/>
<path d="M0 0 C0.98742187 -0.00322266 1.97484375 -0.00644531 2.9921875 -0.00976562 C10.23228304 0.04478304 10.23228304 0.04478304 12.5 2.3125 C11.64535156 2.57804687 10.79070312 2.84359375 9.91015625 3.1171875 C8.80542969 3.47039062 7.70070312 3.82359375 6.5625 4.1875 C4.90927734 4.70957031 4.90927734 4.70957031 3.22265625 5.2421875 C0.37121196 6.01274295 0.37121196 6.01274295 -0.5 8.3125 C-2.15697379 9.00290574 -3.8255761 9.6655635 -5.5 10.3125 C-8.88369529 12.12238353 -10.33633723 13.06700585 -12.5 16.3125 C-14.8125 18.125 -14.8125 18.125 -17.5 19.3125 C-20.87788306 18.65340087 -22.29176174 17.52668793 -24.6875 15.0625 C-26.57415815 12.19998419 -27.5817123 9.60303091 -28.5 6.3125 C-18.98360771 1.96806004 -10.51025028 -0.17705947 0 0 Z " fill="#B84B2B" transform="translate(175.5,108.6875)"/>
<path d="M0 0 C0.75087891 0.00926514 1.50175781 0.01853027 2.27539062 0.02807617 C3.04302734 0.03411865 3.81066406 0.04016113 4.6015625 0.04638672 C14.01691185 0.2094359 22.51666839 2.01095683 31.33789062 5.27807617 C30.92580252 10.53219954 30.16071975 13.56143674 26.33789062 17.27807617 C23.90039062 18.77807617 23.90039062 18.77807617 21.33789062 19.27807617 C17.81627265 17.72201242 16.493275 16.51115273 14.33789062 13.27807617 C12.69998351 12.23163551 11.02781041 11.23825787 9.33789062 10.27807617 C8.47164063 9.63870117 7.60539062 8.99932617 6.71289062 8.34057617 C2.16875653 5.56360534 -2.62839376 3.96195257 -7.66210938 2.27807617 C-5.12025665 -0.26377655 -3.4697032 0.02023729 0 0 Z " fill="#B84B2B" transform="translate(252.662109375,108.721923828125)"/>
<path d="M0 0 C2.73114277 1.82076185 4.13045217 2.83956475 5.625 5.75 C5.955 8.39 6.285 11.03 6.625 13.75 C-2.945 13.75 -12.515 13.75 -22.375 13.75 C-21.31904924 7.41429546 -20.05180119 4.04440102 -15.1875 -0.125 C-9.97342301 -2.2106308 -5.22316013 -1.93450375 0 0 Z " fill="#FBF7F5" transform="translate(1006.375,198.25)"/>
<path d="M0 0 C3.71291873 1.00400354 5.19858132 3.40407861 7.30078125 6.48046875 C8.296875 8.62109375 8.296875 8.62109375 8.296875 12.62109375 C7.64460938 12.77964844 6.99234375 12.93820312 6.3203125 13.1015625 C-2.41398811 15.43328582 -7.0129478 18.86426223 -11.703125 26.62109375 C-14.30832511 24.12444364 -15.00491121 21.99580598 -15.203125 18.49609375 C-15.0069131 12.25862083 -12.16658877 6.69698287 -8.3046875 1.875 C-5.65284799 -0.2011963 -3.27370618 -0.09093628 0 0 Z " fill="#B84B2B" transform="translate(154.703125,256.37890625)"/>
<path d="M0 0 C0.08114106 1.77007714 0.13925505 3.54122098 0.1875 5.3125 C0.23970703 6.79169922 0.23970703 6.79169922 0.29296875 8.30078125 C0 11 0 11 -1.3046875 12.7578125 C-4.88903932 15.3841348 -9.07331657 16.7377311 -13.3125 17.9375 C-16.54085622 19.21382688 -16.62261907 19.96976196 -18 23 C-20.625 24.75 -20.625 24.75 -23 26 C-20.19022486 14.68062013 -13.48224208 7.48886627 -4 1 C-2 0 -2 0 0 0 Z " fill="#B94D2D" transform="translate(246,282)"/>
<path d="M0 0 C2.9375 0.375 2.9375 0.375 6 1 C7.27892325 3.55784651 7.15929124 5.45063399 7.2109375 8.3125 C7.23929688 9.38886719 7.26765625 10.46523438 7.296875 11.57421875 C7.34824224 13.82667227 7.39271411 16.07929549 7.4296875 18.33203125 C7.62936165 25.34558591 8.58197609 31.40302023 11 38 C5.29478153 33.78183166 1.64866427 28.99058992 0 22 C-0.70724238 14.69051173 -0.38116166 7.32221317 0 0 Z " fill="#BB5234" transform="translate(124,266)"/>
<path d="M0 0 C0.78329141 15.04722877 0.85245172 25.59765343 -8.875 37.75 C-9.926875 38.86375 -9.926875 38.86375 -11 40 C-11.33 39.34 -11.66 38.68 -12 38 C-11.4216999 36.53673953 -10.7715427 35.10163773 -10.08984375 33.68359375 C-7.06938266 26.47157823 -7.51560186 19.35985073 -7.59960938 11.66210938 C-7.58317383 10.05239258 -7.58317383 10.05239258 -7.56640625 8.41015625 C-7.57615479 7.44215088 -7.58590332 6.47414551 -7.59594727 5.47680664 C-7 3 -7 3 -4.58959961 1.16186523 C-2 0 -2 0 0 0 Z " fill="#B94D2E" transform="translate(304,265)"/>
<path d="M0 0 C9.06488892 3.10242188 15.27624954 10.55259127 19.94140625 18.640625 C21.04275197 21.09528483 21.58174248 23.3494692 22 26 C16.25 22.375 16.25 22.375 14 19 C11.44816596 17.79549696 11.44816596 17.79549696 9 17 C9 16.34 9 15.68 9 15 C7.9171875 15.12375 7.9171875 15.12375 6.8125 15.25 C2.9896147 14.91018797 1.550946 13.84248268 -1 11 C-1.4161035 7.11636736 -1.19131862 3.72287068 0 0 Z " fill="#B84B2B" transform="translate(182,282)"/>
<path d="M0 0 C0.99 0 1.98 0 3 0 C4.81631237 2.32117551 6.41566317 4.59046856 8 7.0625 C8.43828125 7.71927734 8.8765625 8.37605469 9.328125 9.05273438 C13.14788989 14.89168221 16.45955803 20.36418161 16.25 27.5625 C16.22421875 28.49835938 16.1984375 29.43421875 16.171875 30.3984375 C15.97915821 33.31546891 15.61801663 36.1416731 15 39 C13.36463469 36.07505142 12.71997923 33.6676471 12.296875 30.359375 C10.96611569 23.24633601 6.68482391 18.39477257 2.34765625 12.79296875 C0.70682842 10.56535481 -0.7965168 8.49210765 -2 6 C-1.390625 2.421875 -1.390625 2.421875 0 0 Z " fill="#BA5031" transform="translate(302,242)"/>
<path d="M0 0 C4.20696128 1.42777089 7.14972107 3.4882949 10.5625 6.3125 C11.49191406 7.07175781 12.42132813 7.83101562 13.37890625 8.61328125 C17.44098861 12.31213717 20.23474358 15.88188846 22.25 21 C22.58515625 21.825 22.9203125 22.65 23.265625 23.5 C24.03700255 26.12596614 24.13606975 28.27860501 24 31 C21.92354217 28.47858692 20.03657748 26.06365198 18.40625 23.2265625 C15.10277966 18.21892095 9.71919682 15.19029571 4.84765625 11.85546875 C-0.87391647 7.72923989 -0.87391647 7.72923989 -1.578125 3.65625 C-1 1 -1 1 0 0 Z " fill="#BA5031" transform="translate(302,222)"/>
<path d="M0 0 C2 2 2 2 2.6015625 4.2265625 C1.61195283 8.78904866 -2.00234259 10.68497068 -5.625 13.375 C-12.722556 18.73987958 -18.6885419 24.09566016 -23 32 C-24.6844244 26.9467268 -22.2006184 22.65786868 -20 18 C-15.1437139 10.39043488 -7.16910241 5.2609353 0 0 Z " fill="#B94F30" transform="translate(125,222)"/>
<path d="M0 0 C1.5625 1.125 1.5625 1.125 3 3 C2.9847392 8.39469411 0.31907046 11.73798737 -2.875 15.8125 C-8.19077812 22.90892826 -10.86365266 29.13649071 -12 38 C-12.33 38 -12.66 38 -13 38 C-13.81258462 23.47881185 -12.83733221 14.70619319 -3.125 3.3125 C-2.0937189 2.19862713 -1.05604986 1.09041835 0 0 Z " fill="#B84B2B" transform="translate(124,242)"/>
<path d="M0 0 C7.09075303 0.56275818 13.59001053 1.79500527 20 5 C20 7.31 20 9.62 20 12 C13.45150687 10.83795007 7.25461856 9.26616615 1 7 C0.67 4.69 0.34 2.38 0 0 Z " fill="#BA5031" transform="translate(128,221)"/>
<path d="M0 0 C6.6 0 13.2 0 20 0 C20 2.31 20 4.62 20 7 C13.73 7 7.46 7 1 7 C0.67 4.69 0.34 2.38 0 0 Z " fill="#B84C2C" transform="translate(128,240)"/>
<path d="M0 0 C-2.34431428 5.33533595 -6.52096823 8.70145955 -11.625 11.375 C-14.27305566 12.07185675 -16.27799276 12.35815885 -19 12 C-20.8125 10.5 -20.8125 10.5 -22 9 C-21 6 -21 6 -19.3894043 5.10864258 C-18.70789307 4.87298584 -18.02638184 4.6373291 -17.32421875 4.39453125 C-16.57849609 4.13349609 -15.83277344 3.87246094 -15.06445312 3.60351562 C-14.28005859 3.34248047 -13.49566406 3.08144531 -12.6875 2.8125 C-11.52831055 2.40354492 -11.52831055 2.40354492 -10.34570312 1.98632812 C-6.5983781 0.70070243 -4.04201168 0 0 0 Z " fill="#B94D2D" transform="translate(148,253)"/>
<path d="M0 0 C1.875 1.0625 1.875 1.0625 3 3 C3.4375 6.5 3.4375 6.5 3 10 C1.3125 12 1.3125 12 -1 13 C-4.18537946 12.92230782 -5.51442817 12.46882797 -7.8125 10.25 C-9.24140286 7.54260511 -9.46465448 6.02025413 -9 3 C-6.73529086 -0.64869805 -4.03159541 -0.50394943 0 0 Z " fill="#BA4F30" transform="translate(178,238)"/>
<path d="M0 0 C12.66970387 3.07517084 12.66970387 3.07517084 18 5 C18 6.32 18 7.64 18 9 C15 11 15 11 11.75 10.8125 C7.64884636 9.92391671 4.67812395 9.01936217 1 7 C-0.5 4.4375 -0.5 4.4375 -1 2 C-0.67 1.34 -0.34 0.68 0 0 Z " fill="#B94D2E" transform="translate(284,254)"/>
<path d="M0 0 C2.3125 1.375 2.3125 1.375 4 3 C4 3.66 4 4.32 4 5 C3.02160156 5.21914062 2.04320312 5.43828125 1.03515625 5.6640625 C-7.06912924 7.58646479 -13.32355557 9.82137365 -20 15 C-20.99 15.495 -20.99 15.495 -22 16 C-19.68703112 8.93806311 -13.91252542 4.79232334 -7.75 1 C-4.85297412 -0.05346396 -3.04387773 -0.48061227 0 0 Z " fill="#BB5133" transform="translate(126,211)"/>
<path d="M0 0 C0.70125 -0.01675781 1.4025 -0.03351563 2.125 -0.05078125 C2.74375 0.06910156 3.3625 0.18898437 4 0.3125 C6 3.3125 6 3.3125 5.75 6.875 C5 10.3125 5 10.3125 3 12.3125 C-0.5 12.125 -0.5 12.125 -4 11.3125 C-6.30163882 7.86004176 -6.34490322 6.36511287 -6 2.3125 C-3.67471713 -0.01278287 -3.15334102 0.01738975 0 0 Z " fill="#B94D2E" transform="translate(175,202.6875)"/>
<path d="M0 0 C5.28 0 10.56 0 16 0 C15 6 15 6 13 8 C9.9609375 8.1953125 9.9609375 8.1953125 6.375 8.125 C5.18648438 8.10695312 3.99796875 8.08890625 2.7734375 8.0703125 C1.85820312 8.04710937 0.94296875 8.02390625 0 8 C0 5.36 0 2.72 0 0 Z " fill="#BC5537" transform="translate(284,239)"/>
<path d="M0 0 C3.5625 0.3125 3.5625 0.3125 5.5625 1.375 C7.17897822 4.50692656 6.34915296 6.98435286 5.5625 10.3125 C4.9025 10.9725 4.2425 11.6325 3.5625 12.3125 C0.0625 12.125 0.0625 12.125 -3.4375 11.3125 C-5.73913882 7.86004176 -5.78240322 6.36511287 -5.4375 2.3125 C-3.4375 0.3125 -3.4375 0.3125 0 0 Z " fill="#B94D2D" transform="translate(174.4375,169.6875)"/>
<path d="M0 0 C0.25 2.3125 0.25 2.3125 0 5 C-3.03203856 8.28470844 -7.75127044 9.82993971 -12 11 C-13.32 11 -14.64 11 -16 11 C-16 8.69 -16 6.38 -16 4 C-4 0 -4 0 0 0 Z " fill="#BA4F30" transform="translate(300,221)"/>
<path d="M0 0 C5.98405699 0.14595261 9.70633533 3.16479645 14 7 C15.80913925 8.93120165 17.39303759 10.89086184 19 13 C18.67 13.66 18.34 14.32 18 15 C17.48953125 14.61328125 16.9790625 14.2265625 16.453125 13.828125 C10.32787111 9.44053179 4.21529144 7.07546454 -3 5 C-1.125 1.125 -1.125 1.125 0 0 Z " fill="#BB5334" transform="translate(304,212)"/>
<path d="M0 0 C-1.89562316 2.00093556 -3.82679017 3.65454221 -6 5.375 C-8.79266746 7.81858403 -10.1897518 9.83206565 -12 13 C-12.66 13 -13.32 13 -14 13 C-13.56460604 8.06553512 -11.36703914 5.52008638 -8 2 C-3.64444444 -1.21481481 -3.64444444 -1.21481481 0 0 Z " fill="#F5E7E3" transform="translate(313,154)"/>
<path d="M0 0 C2.76641818 0.08136524 4.51097677 0.5671726 6.59765625 2.4140625 C9.83883449 6.02952914 11.82990175 9.20259718 13 14 C9.4716235 12.8238745 9.3590649 12.26133826 7.6875 9.125 C5.4024447 5.23761934 3.3078598 3.60292458 -1 2 C-0.67 1.34 -0.34 0.68 0 0 Z " fill="#F7EBE8" transform="translate(121,154)"/>
<path d="M0 0 C0.66 0.66 1.32 1.32 2 2 C1.41992188 2.44730469 0.83984375 2.89460937 0.2421875 3.35546875 C-4.2423764 6.8261956 -8.67101386 10.33701172 -13 14 C-13.33 13.01 -13.66 12.02 -14 11 C-9.52692892 6.95834187 -5.11723176 3.19826985 0 0 Z " fill="#F7EAE7" transform="translate(133,181)"/>
<path d="M0 0 C3.83219177 1.56126332 6.17361222 4.02866925 9 7 C9.598125 7.598125 10.19625 8.19625 10.8125 8.8125 C11.204375 9.204375 11.59625 9.59625 12 10 C11.67 10.66 11.34 11.32 11 12 C7.57990294 10.85996765 6.71130558 9.77829802 4.4375 7.0625 C2.66869432 4.96656037 0.94005112 2.94005112 -1 1 C-0.67 0.67 -0.34 0.34 0 0 Z " fill="#F3E1DC" transform="translate(301,183)"/>
<path d="M0 0 C0.99 0 1.98 0 3 0 C4.28125 1.6796875 4.28125 1.6796875 5.5 3.875 C7.21259057 6.93790236 7.97006943 7.98004629 11 10 C10.67 10.99 10.34 11.98 10 13 C5.89601599 9.72805658 2.28938344 6.84810612 0 2 C0 1.34 0 0.68 0 0 Z " fill="#F5E7E3" transform="translate(145,117)"/>
<path d="M0 0 C0.33 0.99 0.66 1.98 1 3 C-0.328125 5.0078125 -0.328125 5.0078125 -2.25 7.125 C-2.87390625 7.82882813 -3.4978125 8.53265625 -4.140625 9.2578125 C-6 11 -6 11 -9 12 C-8.52575143 7.73176286 -6.04238597 5.82507269 -3 3 C-2.401875 2.401875 -1.80375 1.80375 -1.1875 1.1875 C-0.795625 0.795625 -0.40375 0.40375 0 0 Z " fill="#F7EBE8" transform="translate(285,118)"/>
<path d="M0 0 C0.66 0.33 1.32 0.66 2 1 C-0.77762123 4.60062011 -3.73991357 7.83047153 -7 11 C-7 7.22089522 -6.00296038 6.53893899 -3.5 3.8125 C-2.8503125 3.09707031 -2.200625 2.38164062 -1.53125 1.64453125 C-1.0259375 1.10183594 -0.520625 0.55914062 0 0 Z " fill="#BF5C3F" transform="translate(112,216)"/>
</svg>
