<?xml version="1.0" encoding="UTF-8"?>
<svg version="1.1" xmlns="http://www.w3.org/2000/svg" width="1024" height="1024">
<path d="M0 0 C337.92 0 675.84 0 1024 0 C1024 337.92 1024 675.84 1024 1024 C686.08 1024 348.16 1024 0 1024 C0 686.08 0 348.16 0 0 Z " fill="#FEFEFE" transform="translate(0,0)"/>
<path d="M0 0 C0.35191406 1.19496094 0.70382812 2.38992188 1.06640625 3.62109375 C3.78809819 12.52037169 6.22376727 20.3100887 13 27 C13.92619141 27.94552734 13.92619141 27.94552734 14.87109375 28.91015625 C22.89154426 36.51102584 32.3660668 40.4238541 43.3125 41.25 C45.95051908 41.1942785 45.95051908 41.1942785 47.76953125 39.97265625 C50.77481618 38.66212044 53.11893654 38.98636787 56.375 39.1875 C60.80457353 39.40578924 60.80457353 39.40578924 64.83203125 37.9296875 C65.27933594 37.47851562 65.72664062 37.02734375 66.1875 36.5625 C69.36775375 33.66493548 69.98399618 33.72666358 74.0625 33.625 C77.67535316 33.54741343 77.67535316 33.54741343 80.4375 31.5 C81.19250642 30.24165596 81.93069131 28.97307703 82.65234375 27.6953125 C84.42587295 25.46426417 85.89322429 25.19280989 88.625 24.5 C90.9810496 23.93823804 90.9810496 23.93823804 93 23 C94.03101947 20.68020619 95.02936517 18.34570085 96 16 C98.09859661 14.49231258 100.25307813 13.40524846 102.5703125 12.265625 C106.37276112 10.28492829 109.64967961 7.65652107 113 5 C112.41267324 10.48171639 111.47626383 15.68363884 110 21 C109.66935547 22.36705078 109.66935547 22.36705078 109.33203125 23.76171875 C106.80609301 33.21323413 102.39261527 41.3776182 97.31787109 49.69921875 C95.92809865 52.02983379 95.92809865 52.02983379 94.79541016 54.75390625 C93.4287752 57.62867506 92.25640828 59.74667807 90 62 C85.65132301 63.21993459 81.59746076 62.95311507 77.125 62.625 C75.9596875 62.57988281 74.794375 62.53476562 73.59375 62.48828125 C70.72695312 62.37078957 67.86281095 62.19142124 65 62 C65 67.61 65 73.22 65 79 C66.84980469 78.66226563 68.69960938 78.32453125 70.60546875 77.9765625 C102.07210099 72.32675655 133.06650568 70.81993943 165.0012207 70.86962891 C168.69299036 70.87532044 172.38468791 70.87192885 176.07645512 70.86620617 C197.50875548 70.83769795 218.86709183 70.91911107 240.15454102 73.67456055 C242.22762201 73.94268931 244.30201953 74.19781309 246.37695312 74.45117188 C253.97058984 75.393203 261.48632549 76.54930787 269 78 C269 72.72 269 67.44 269 62 C266.99099609 62.26103516 266.99099609 62.26103516 264.94140625 62.52734375 C251.43134926 63.76442145 251.43134926 63.76442145 247.28222656 60.75341797 C244.32815117 57.29645394 242.57477888 53.23614383 240.86621094 49.05615234 C239.57089682 45.98142418 237.91103814 43.11357948 236.3125 40.1875 C230.94910895 29.17317014 226.39812541 17.34188779 226 5 C226.94875 5.86625 227.8975 6.7325 228.875 7.625 C231.82628136 10.19080788 234.83259895 12.10589795 238.25 14 C242.8123143 16.60898811 242.8123143 16.60898811 244.5 20.125 C246.63624583 24.21947117 249.49704511 24.48895221 253.72265625 25.92578125 C256 27 256 27 257.4375 30.1875 C258.2109375 31.5796875 258.2109375 31.5796875 259 33 C261.80727961 33.49566735 264.53125828 33.56757992 267.37890625 33.66015625 C270 34 270 34 272.3125 36.5 C276.34583644 40.25194087 280.47345291 39.701117 285.8203125 39.859375 C289 40 289 40 292 41 C302.67752862 42.44780049 313.53680312 36.82951148 322.0625 30.6875 C331.53199995 22.55529584 335.76192133 12.0461293 338 0 C343.97877366 0.47777104 348.39562776 1.72203114 353.6875 4.5 C354.38101562 4.85964844 355.07453125 5.21929687 355.7890625 5.58984375 C379.13866866 17.97156151 398.02450651 37.29347883 406.07421875 62.84765625 C406.37972656 63.88792969 406.68523437 64.92820312 407 66 C407.31582031 66.90621094 407.63164063 67.81242187 407.95703125 68.74609375 C410.56944804 76.77420561 410.28250989 84.66072662 410 93 C408.58460938 93.00386719 408.58460938 93.00386719 407.140625 93.0078125 C395.471862 93.35928126 386.86640703 96.0330774 378.125 104.25 C371.15272069 111.77603434 367.0153306 120.65458454 363 130 C357.42840623 130.16167571 352.42878226 129.71052538 347 128.375 C346.27304932 128.1996875 345.54609863 128.024375 344.79711914 127.84375 C335.46690987 125.49130868 326.36419551 122.23935052 317.76977539 117.90234375 C317.06051407 117.54519287 316.35125275 117.18804199 315.62049866 116.82006836 C315.0857341 116.5494458 314.55096954 116.27882324 314 116 C313.98598145 117.63243652 313.98598145 117.63243652 313.97167969 119.29785156 C313.93137484 123.39101973 313.86551069 127.48346777 313.79248047 131.57617188 C313.764503 133.33714446 313.74317474 135.0982372 313.72900391 136.859375 C313.63400741 148.0056303 313.23142733 158.03818729 307.87011719 168.12597656 C306.7894374 170.10913922 306.7894374 170.10913922 307 173 C308.63631892 174.04892238 310.30485863 175.04906703 312 176 C313.34300855 178.68601709 313.15690674 180.79619996 313.19287109 183.80395508 C313.21696548 185.63274956 313.21696548 185.63274956 313.24154663 187.49848938 C313.25304397 188.83882951 313.26365083 190.17917753 313.2734375 191.51953125 C313.27876118 192.19652258 313.28408485 192.87351391 313.28956985 193.57102013 C313.31632685 197.16509239 313.33568013 200.75912987 313.35009766 204.35327148 C313.36335051 207.30671767 313.39103479 210.25945866 313.43212891 213.21264648 C313.48195856 216.79419978 313.50628116 220.37512145 313.51332474 223.95700645 C313.52315796 225.9625185 313.55729071 227.96786528 313.59213257 229.97309875 C313.57179656 238.9199024 311.76367522 245.89026629 308 254 C308.81202881 254.54696533 309.62405762 255.09393066 310.46069336 255.6574707 C314.10410953 259.34121663 313.6171988 263.68985401 313.66908264 268.61039734 C313.64919533 270.52608269 313.64919533 270.52608269 313.62890625 272.48046875 C313.62973606 273.81700331 313.63219966 275.15353775 313.63621521 276.49006653 C313.63907009 279.29032146 313.62441478 282.08977529 313.59692383 284.88989258 C313.56300497 288.45289164 313.56880585 292.01444363 313.5875864 295.57750988 C313.59824044 298.33939833 313.5891407 301.10095959 313.57420158 303.86281776 C313.56659656 305.80682179 313.57382606 307.75086598 313.58143616 309.69487 C313.43709152 320.67245139 310.73543188 328.39361482 304 337 C304.9178125 337.00257813 305.835625 337.00515625 306.78125 337.0078125 C319.17121151 337.39825246 319.17121151 337.39825246 324.125 341.796875 C335.72064718 355.42176044 340.27219211 369.14647565 339 387 C337.95317622 392.77557948 335.83851974 397.86363095 333 403 C332.34 403 331.68 403 331 403 C330.79246094 402.39414062 330.58492187 401.78828125 330.37109375 401.1640625 C325.52229153 387.97694348 317.49816732 378.55594478 304.875 372.1875 C297.89620345 369.21523557 290.45272774 368.15017003 283 367 C284.20287276 359.54218888 286.83593319 354.27228932 291 348 C289.8140625 348.51949219 288.628125 349.03898437 287.40625 349.57421875 C249.48687595 366.00068641 210.66108102 369.24894937 169.73342514 369.36791611 C167.72498874 369.3748702 165.71657208 369.38692578 163.7081604 369.39907837 C132.95217128 369.54183487 101.36584388 367.37182216 72.20703125 356.8203125 C67.12243304 355.51974536 63.36219975 356.52823132 58.875 359.0625 C55.74001191 360.83143906 54.86184145 361 51 361 C50.72027344 360.26136719 50.44054687 359.52273438 50.15234375 358.76171875 C46.50138443 349.52279596 42.13668022 341.22929 35.3125 333.9375 C27.80637142 325.58252284 27.41005561 316.38632046 27.50390625 305.56640625 C27.50375094 304.19782942 27.50225662 302.82925216 27.49949646 301.4606781 C27.49812193 298.61396482 27.51052077 295.76776128 27.53344727 292.92114258 C27.56202032 289.27372554 27.5590313 285.6271416 27.54635715 281.97966099 C27.53940902 279.16321175 27.54717599 276.34695551 27.55961418 273.53053093 C27.56631057 271.5324551 27.56199029 269.53435217 27.55751038 267.53627014 C27.57019455 266.32748703 27.58287872 265.11870392 27.59594727 263.87329102 C27.60135025 262.80869156 27.60675323 261.7440921 27.61231995 260.64723206 C28 258 28 258 29.4002533 256.13291931 C31 255 31 255 33 255 C32.72285156 254.33613281 32.44570313 253.67226563 32.16015625 252.98828125 C31.79792969 252.10527344 31.43570313 251.22226562 31.0625 250.3125 C30.52302734 249.00732422 30.52302734 249.00732422 29.97265625 247.67578125 C28.29598379 243.06324859 27.86854689 238.8050107 27.82299805 233.91210938 C27.80374519 232.10498474 27.80374519 232.10498474 27.78410339 230.26135254 C27.77671646 228.9685437 27.76932953 227.67573486 27.76171875 226.34375 C27.75764322 225.68158981 27.7535677 225.01942963 27.74936867 224.33720398 C27.72857834 220.83662231 27.71424276 217.3360791 27.70483398 213.83544922 C27.69374451 210.22730072 27.65929652 206.61976465 27.61966228 203.01183319 C27.59349743 200.22880931 27.58514267 197.44593208 27.58155251 194.66279602 C27.57433476 192.68799043 27.54790581 190.71328517 27.52116394 188.73864746 C27.52408951 187.53389771 27.52701508 186.32914795 27.5300293 185.08789062 C27.52416306 184.03041626 27.51829681 182.97294189 27.51225281 181.88342285 C28.12608238 178.2546368 29.39409983 176.55926721 32 174 C32.99 174 33.98 174 35 174 C34.57847656 173.11957031 34.15695312 172.23914063 33.72265625 171.33203125 C32.90087891 169.58986328 32.90087891 169.58986328 32.0625 167.8125 C31.51722656 166.66394531 30.97195313 165.51539063 30.41015625 164.33203125 C28.4038482 159.59136432 27.8741272 155.41833202 27.80712891 150.29516602 C27.78303452 148.61300743 27.78303452 148.61300743 27.75845337 146.89686584 C27.71381477 141.79770697 27.67297755 136.6986737 27.64990234 131.59936523 C27.636547 128.90956743 27.60865352 126.2205254 27.56787109 123.53100586 C27.51315308 119.64674079 27.49123885 115.7635046 27.4765625 111.87890625 C27.45389313 110.67875381 27.43122375 109.47860138 27.40786743 108.24208069 C27.43143231 98.9436544 27.43143231 98.9436544 30.15771484 95.44506836 C33 93 33 93 39 89 C24.15 88.505 24.15 88.505 9 88 C9 99.55 9 111.1 9 123 C6.36 123.804375 3.72 124.60875 1 125.4375 C0.1853125 125.68943115 -0.629375 125.9413623 -1.46875 126.20092773 C-9.32407796 128.55091707 -16.82424617 129.12774615 -25 129 C-25.63615234 127.42412109 -25.63615234 127.42412109 -26.28515625 125.81640625 C-32.06863711 111.8236836 -38.35898438 102.35213984 -52.28515625 95.34765625 C-56.47496289 93.82769485 -60.02556179 93.4537789 -64.4375 93.3125 C-65.16904297 93.27833984 -65.90058594 93.24417969 -66.65429688 93.20898438 C-68.43569562 93.12748247 -70.21781749 93.06204477 -72 93 C-73.45008509 66.85818824 -61.06052605 44.29507131 -44.0625 25.2578125 C-34.19877138 14.55974593 -15.51337124 -0.62597814 0 0 Z " fill="#070707" transform="translate(343,270)"/>
<path d="M0 0 C0.09302654 7.42398208 0.16392923 14.84783674 0.20724869 22.27228546 C0.22804893 25.72047132 0.25622536 29.16825594 0.30175781 32.61621094 C0.35387244 36.58784035 0.37300789 40.55931207 0.390625 44.53125 C0.41127014 45.75863892 0.43191528 46.98602783 0.45318604 48.25061035 C0.45529252 56.3425943 -0.48003861 61.69604721 -5.71875 68.1015625 C-21.51130642 81.60835418 -43.07061107 85.72202851 -63 89 C-64.52537888 89.25679031 -64.52537888 89.25679031 -66.08157349 89.51876831 C-85.32981964 92.69544774 -103.95978644 93.60416412 -123.41784668 93.44952393 C-126.27828455 93.43348698 -129.13839655 93.4436362 -131.99884415 93.45324802 C-220.25275226 93.68983501 -220.25275226 93.68983501 -247.0625 68.4375 C-252.6603279 62.72572141 -253.34139663 57.1975447 -253.33988953 49.47720337 C-253.31666374 47.62063614 -253.31666374 47.62063614 -253.29296875 45.7265625 C-253.28872391 44.44768158 -253.28447906 43.16880066 -253.28010559 41.85116577 C-253.2661897 38.46765298 -253.23928324 35.08475773 -253.20599365 31.70141602 C-253.17518588 28.24240426 -253.1615775 24.78332846 -253.14648438 21.32421875 C-253.11344754 14.54930973 -253.06327151 7.77469049 -253 1 C-249.47048544 2.38184864 -246.20687138 3.9432126 -242.875 5.75 C-208.25962469 22.97387319 -165.81106789 23.27235315 -127.9375 23.25 C-126.82407227 23.24940582 -125.71064453 23.24881165 -124.56347656 23.24819946 C-105.98233428 23.21028927 -87.78352449 22.46128219 -69.36108398 20.00805664 C-66.93670026 19.68739422 -64.51060197 19.38331369 -62.08398438 19.08007812 C-48.66053066 17.34945735 -35.66418563 14.48729759 -22.8125 10.1875 C-21.70177124 9.81890869 -21.70177124 9.81890869 -20.56860352 9.44287109 C-14.4470399 7.32643273 -8.91087817 4.55159265 -3.30859375 1.3203125 C-1 0 -1 0 0 0 Z " fill="#FDFDFD" transform="translate(640,450)"/>
<path d="M0 0 C0.99507568 0.54052002 1.99015137 1.08104004 3.01538086 1.63793945 C4.35260493 2.35906643 5.6899314 3.08000353 7.02734375 3.80078125 C7.67940796 4.15563599 8.33147217 4.51049072 9.0032959 4.87609863 C42.43082329 22.84378162 84.46018766 24.43024006 121.5625 24.3125 C123.35692032 24.30976578 123.35692032 24.30976578 125.18759155 24.30697632 C166.009108 24.20278179 213.50675251 23.9624907 249.0390625 1.13671875 C251 0 251 0 253 0 C253.10173363 7.40141002 253.1716057 14.80263853 253.21972656 22.20458984 C253.23979516 24.72060891 253.2670563 27.23658161 253.30175781 29.75244141 C253.35048312 33.37674428 253.37301722 37.00042841 253.390625 40.625 C253.41127014 41.74302002 253.43191528 42.86104004 253.45318604 44.01293945 C253.45543662 51.91278854 252.24014304 57.11966741 247.0625 63.3203125 C231.04202315 77.33822974 209.44476869 81.67430764 189 85 C188.11393066 85.14566406 187.22786133 85.29132813 186.31494141 85.44140625 C183.69067948 85.86750692 181.06494653 86.28152215 178.4375 86.6875 C177.27951904 86.86671997 177.27951904 86.86671997 176.09814453 87.04956055 C164.99739765 88.68425147 153.96146259 89.1580145 142.75 89.16796875 C141.40258756 89.17119728 140.05517545 89.17456242 138.70776367 89.17805481 C135.89745271 89.18399646 133.08717225 89.18590006 130.27685547 89.18530273 C127.4398761 89.1852218 124.60305932 89.19211975 121.76611328 89.20581055 C105.75990701 89.28182175 89.88497334 89.22603382 74 87 C72.37553955 86.77292358 72.37553955 86.77292358 70.71826172 86.54125977 C68.11257682 86.13800439 65.52689208 85.68383029 62.9375 85.1875 C62.03467285 85.01790771 61.1318457 84.84831543 60.20166016 84.67358398 C46.7528852 82.06828081 33.38838125 78.98861143 21 73 C20.03449219 72.53722656 19.06898438 72.07445312 18.07421875 71.59765625 C9.9342065 67.44503836 3.40857865 62.72330486 0 54 C-0.41357377 49.86483923 -0.34886348 45.75369538 -0.29296875 41.6015625 C-0.28872391 40.41146576 -0.28447906 39.22136902 -0.28010559 37.99520874 C-0.26335169 34.20490625 -0.22570416 30.41514102 -0.1875 26.625 C-0.17244897 24.05078894 -0.1587613 21.47656953 -0.14648438 18.90234375 C-0.11345883 12.60138008 -0.06329145 6.30072843 0 0 Z " fill="#FDFCFC" transform="translate(387,534)"/>
<path d="M0 0 C0.55942291 0.20766495 1.11884583 0.4153299 1.69522095 0.62928772 C38.31732089 14.15722278 77.86949518 15.54372305 116.52178955 15.26428223 C119.67164519 15.24516496 122.82144309 15.24116661 125.97134876 15.23743057 C160.33212101 15.32640612 160.33212101 15.32640612 194.5625 12.75 C195.65691406 12.62431641 196.75132812 12.49863281 197.87890625 12.36914062 C216.66189662 10.07511714 235.07981325 6.06183574 253 0 C253.09920868 5.99563827 253.17162945 11.990794 253.21972656 17.98706055 C253.23978632 20.02490568 253.26704099 22.06269366 253.30175781 24.1003418 C253.35052434 27.03709047 253.37302541 29.97307518 253.390625 32.91015625 C253.41127014 33.81459976 253.43191528 34.71904327 253.45318604 35.65089417 C253.45558233 42.47486911 251.91120206 46.45221509 247.53515625 51.78515625 C217.68771255 77.67405304 161.49735258 75.22973858 124.5 75.25 C123.38393372 75.25067474 122.26786743 75.25134949 121.11798096 75.25204468 C94.12110834 75.22627005 67.91693698 73.65334458 41.51538086 67.57666016 C39.85810966 67.19672474 38.19740462 66.83142558 36.53344727 66.48193359 C22.74724437 63.5809343 9.50127515 57.54301581 1 46 C-0.1650499 43.6699002 -0.1209358 42.32752923 -0.11352539 39.73388672 C-0.11344986 38.85312469 -0.11337433 37.97236267 -0.11329651 37.06491089 C-0.10813522 36.11278717 -0.10297394 35.16066345 -0.09765625 34.1796875 C-0.0962413 33.20589142 -0.09482635 32.23209534 -0.09336853 31.22879028 C-0.08775973 28.11082927 -0.07520573 24.9929394 -0.0625 21.875 C-0.05748613 19.76432395 -0.05292303 17.65364678 -0.04882812 15.54296875 C-0.03778745 10.36195479 -0.02104073 5.18098248 0 0 Z " fill="#FCFCFC" transform="translate(387,383)"/>
<path d="M0 0 C5.97877366 0.47777104 10.39562776 1.72203114 15.6875 4.5 C16.38101563 4.85964844 17.07453125 5.21929687 17.7890625 5.58984375 C41.13866866 17.97156151 60.02450651 37.29347883 68.07421875 62.84765625 C68.53248047 64.40806641 68.53248047 64.40806641 69 66 C69.31582031 66.90621094 69.63164063 67.81242187 69.95703125 68.74609375 C72.56944804 76.77420561 72.28250989 84.66072662 72 93 C70.58460938 93.00386719 70.58460938 93.00386719 69.140625 93.0078125 C57.471862 93.35928126 48.86640703 96.0330774 40.125 104.25 C33.15272069 111.77603434 29.0153306 120.65458454 25 130 C19.42840623 130.16167571 14.42878226 129.71052538 9 128.375 C8.27304932 128.1996875 7.54609863 128.024375 6.79711914 127.84375 C-4.0328505 125.11317158 -14.01286766 120.99356617 -24 116 C-24.33 128.54 -24.66 141.08 -25 154 C-25.33 154 -25.66 154 -26 154 C-25.98889694 153.3596431 -25.97779388 152.71928619 -25.96635437 152.05952454 C-25.85570497 145.3924454 -25.7803092 138.72562722 -25.7253418 132.05786133 C-25.70020329 129.56979782 -25.66608753 127.08180812 -25.62280273 124.59399414 C-25.5621257 121.01690459 -25.53378266 117.44079165 -25.51171875 113.86328125 C-25.48591232 112.75165115 -25.4601059 111.64002106 -25.43351746 110.4947052 C-25.35856293 104.23561631 -25.35856293 104.23561631 -28.37426758 98.91870117 C-29.24075928 98.28552979 -30.10725098 97.6523584 -31 97 C-31.825 96.154375 -32.65 95.30875 -33.5 94.4375 C-44.27334849 83.93348522 -57.71882025 81.67398659 -72 79 C-71.01 78.67 -70.02 78.34 -69 78 C-69 72.72 -69 67.44 -69 62 C-70.33933594 62.17402344 -71.67867187 62.34804688 -73.05859375 62.52734375 C-86.56865074 63.76442145 -86.56865074 63.76442145 -90.71777344 60.75341797 C-93.67184883 57.29645394 -95.42522112 53.23614383 -97.13378906 49.05615234 C-98.42910318 45.98142418 -100.08896186 43.11357948 -101.6875 40.1875 C-107.05089105 29.17317014 -111.60187459 17.34188779 -112 5 C-111.05125 5.86625 -110.1025 6.7325 -109.125 7.625 C-106.17371864 10.19080788 -103.16740105 12.10589795 -99.75 14 C-95.1876857 16.60898811 -95.1876857 16.60898811 -93.5 20.125 C-91.36375417 24.21947117 -88.50295489 24.48895221 -84.27734375 25.92578125 C-82 27 -82 27 -80.5625 30.1875 C-79.7890625 31.5796875 -79.7890625 31.5796875 -79 33 C-76.19272039 33.49566735 -73.46874172 33.56757992 -70.62109375 33.66015625 C-68 34 -68 34 -65.6875 36.5 C-61.65416356 40.25194087 -57.52654709 39.701117 -52.1796875 39.859375 C-49 40 -49 40 -46 41 C-35.32247138 42.44780049 -24.46319688 36.82951148 -15.9375 30.6875 C-6.46800005 22.55529584 -2.23807867 12.0461293 0 0 Z " fill="#B54625" transform="translate(681,270)"/>
<path d="M0 0 C0.35191406 1.19496094 0.70382812 2.38992188 1.06640625 3.62109375 C3.78809819 12.52037169 6.22376727 20.3100887 13 27 C13.92619141 27.94552734 13.92619141 27.94552734 14.87109375 28.91015625 C22.89154426 36.51102584 32.3660668 40.4238541 43.3125 41.25 C45.95051908 41.1942785 45.95051908 41.1942785 47.76953125 39.97265625 C50.77481618 38.66212044 53.11893654 38.98636787 56.375 39.1875 C60.80457353 39.40578924 60.80457353 39.40578924 64.83203125 37.9296875 C65.27933594 37.47851562 65.72664062 37.02734375 66.1875 36.5625 C69.36775375 33.66493548 69.98399618 33.72666358 74.0625 33.625 C77.67535316 33.54741343 77.67535316 33.54741343 80.4375 31.5 C81.19250642 30.24165596 81.93069131 28.97307703 82.65234375 27.6953125 C84.42587295 25.46426417 85.89322429 25.19280989 88.625 24.5 C90.9810496 23.93823804 90.9810496 23.93823804 93 23 C94.03101947 20.68020619 95.02936517 18.34570085 96 16 C98.09859661 14.49231258 100.25307813 13.40524846 102.5703125 12.265625 C106.37276112 10.28492829 109.64967961 7.65652107 113 5 C112.41267324 10.48171639 111.47626383 15.68363884 110 21 C109.66935547 22.36705078 109.66935547 22.36705078 109.33203125 23.76171875 C106.80609301 33.21323413 102.39261527 41.3776182 97.31787109 49.69921875 C95.92809865 52.02983379 95.92809865 52.02983379 94.79541016 54.75390625 C93.4287752 57.62867506 92.25640828 59.74667807 90 62 C85.65132301 63.21993459 81.59746076 62.95311507 77.125 62.625 C75.9596875 62.57988281 74.794375 62.53476562 73.59375 62.48828125 C70.72695312 62.37078957 67.86281095 62.19142124 65 62 C65 67.61 65 73.22 65 79 C65.66 79.33 66.32 79.66 67 80 C66.12601562 80.12955078 66.12601562 80.12955078 65.234375 80.26171875 C57.23179645 81.63322985 50.06645551 84.53870409 42.78173828 88.07763672 C39.27075115 89.24180289 36.42365523 89.12854548 32.73046875 88.9765625 C31.48418701 88.93096191 30.23790527 88.88536133 28.95385742 88.83837891 C27.38095947 88.76796387 25.80806152 88.69754883 24.1875 88.625 C19.175625 88.41875 14.16375 88.2125 9 88 C9 99.55 9 111.1 9 123 C6.36 123.804375 3.72 124.60875 1 125.4375 C0.1853125 125.68943115 -0.629375 125.9413623 -1.46875 126.20092773 C-9.32407796 128.55091707 -16.82424617 129.12774615 -25 129 C-25.63615234 127.42412109 -25.63615234 127.42412109 -26.28515625 125.81640625 C-32.06863711 111.8236836 -38.35898438 102.35213984 -52.28515625 95.34765625 C-56.47496289 93.82769485 -60.02556179 93.4537789 -64.4375 93.3125 C-65.16904297 93.27833984 -65.90058594 93.24417969 -66.65429688 93.20898438 C-68.43569562 93.12748247 -70.21781749 93.06204477 -72 93 C-73.45008509 66.85818824 -61.06052605 44.29507131 -44.0625 25.2578125 C-34.19877138 14.55974593 -15.51337124 -0.62597814 0 0 Z " fill="#B54726" transform="translate(343,270)"/>
<path d="M0 0 C1.051875 0.721875 2.10375 1.44375 3.1875 2.1875 C11.14906874 10.14906874 15.96065424 20.30231706 17.296875 31.484375 C17.05230107 43.63154683 7.89265412 56.46108326 0 65 C-1.32644531 66.46373047 -1.32644531 66.46373047 -2.6796875 67.95703125 C-19.1103384 85.53890959 -43.40211787 97.36868913 -67.59375 98.3359375 C-86.65111265 98.62907841 -102.10989573 95.86855032 -119 87 C-119 86.34 -119 85.68 -119 85 C-118.18015625 84.87882813 -117.3603125 84.75765625 -116.515625 84.6328125 C-115.43796875 84.46523438 -114.3603125 84.29765625 -113.25 84.125 C-112.18265625 83.96257812 -111.1153125 83.80015625 -110.015625 83.6328125 C-107.29943853 83.06283555 -105.33435076 82.47260445 -103 81 C-102.67 80.34 -102.34 79.68 -102 79 C-99.85546875 78.7265625 -99.85546875 78.7265625 -97.1875 78.625 C-93.06387664 78.28866969 -93.06387664 78.28866969 -89.5 76.25 C-87.86332098 74.05968894 -87.86332098 74.05968894 -87.3125 71.375 C-86 69 -86 69 -83.984375 68.34375 C-82.39471441 68.03607376 -80.79599298 67.7714521 -79.19140625 67.5546875 C-76.57721599 66.89298515 -75.61674053 66.13730095 -74 64 C-73.7525 62.824375 -73.505 61.64875 -73.25 60.4375 C-72.8375 59.303125 -72.425 58.16875 -72 57 C-68.625 55.8125 -68.625 55.8125 -65 55 C-62.72761528 53.08641287 -61.32202932 51.64405865 -60 49 C-59.55293465 40.03075148 -61.16723263 31.40073625 -62.578125 22.56835938 C-64.91903024 7.21034891 -64.91903024 7.21034891 -64 0 C-61.79086536 -2.71893495 -60.94564728 -3.53318789 -58 -5 C-57.26523437 -5.37640625 -56.53046875 -5.7528125 -55.7734375 -6.140625 C-38.09901684 -14.53449702 -15.65461075 -11.0366458 0 0 Z " fill="#B44624" transform="translate(653,655)"/>
<path d="M0 0 C5.56053832 8.49641956 1.62458411 22.08925335 0.09375 31.57421875 C-2.83453471 44.27877474 -2.83453471 44.27877474 0.15625 56.07421875 C3.56335009 58.53892945 6.01939194 59.32043564 10.09375 60.19921875 C10.465 62.08640625 10.465 62.08640625 10.84375 64.01171875 C11.52382238 66.64816375 11.94921462 68.0268881 13.71875 70.13671875 C17.15804727 71.67535174 20.34190104 71.88656467 24.09375 72.19921875 C25.08375 76.15921875 25.08375 76.15921875 26.09375 80.19921875 C27.00898438 80.2971875 27.92421875 80.39515625 28.8671875 80.49609375 C30.05570312 80.645625 31.24421875 80.79515625 32.46875 80.94921875 C34.24378906 81.15804687 34.24378906 81.15804687 36.0546875 81.37109375 C37.05757813 81.644375 38.06046875 81.91765625 39.09375 82.19921875 C39.403125 82.85921875 39.7125 83.51921875 40.03125 84.19921875 C40.381875 84.85921875 40.7325 85.51921875 41.09375 86.19921875 C43.73536946 86.82845844 46.04245705 87.21220388 48.71875 87.44921875 C49.42515625 87.5265625 50.1315625 87.60390625 50.859375 87.68359375 C52.6024553 87.87203486 54.34795924 88.03780744 56.09375 88.19921875 C56.09375 88.85921875 56.09375 89.51921875 56.09375 90.19921875 C33.90841311 101.69555053 8.12238851 105.98836816 -16.30859375 98.59375 C-23.12042563 95.95333308 -29.54361434 92.77929439 -35.90625 89.19921875 C-36.89367187 88.65394531 -37.88109375 88.10867188 -38.8984375 87.546875 C-55.83704906 77.50645162 -70.28907814 61.00812637 -77.28125 42.57421875 C-79.53095486 30.42581253 -75.79927156 19.87975068 -68.953125 9.7421875 C-53.21411207 -9.81143353 -20.83369819 -12.90905224 0 0 Z " fill="#B44625" transform="translate(421.90625,651.80078125)"/>
<path d="M0 0 C3.52079606 0.00534669 7.04146371 0.00002926 10.56225586 -0.00634766 C28.85470484 -0.01276187 47.08961568 0.38048918 65.28686523 2.38037109 C66.44234863 2.50605469 67.59783203 2.63173828 68.78833008 2.76123047 C77.52682008 3.76557331 86.18823631 5.10027858 94.84936523 6.63037109 C95.99219971 6.83178711 97.13503418 7.03320312 98.3125 7.24072266 C113.58585331 10.06111513 113.58585331 10.06111513 119.72436523 13.13037109 C119.72436523 13.79037109 119.72436523 14.45037109 119.72436523 15.13037109 C116.87173028 15.90724584 114.01741908 16.67685396 111.16186523 17.44287109 C110.38133789 17.65621094 109.60081055 17.86955078 108.79663086 18.08935547 C96.05997722 21.48917935 83.34946944 23.59688647 70.22436523 24.75537109 C68.93916992 24.87654297 67.65397461 24.99771484 66.32983398 25.12255859 C62.46256656 25.48013508 58.59629713 25.82831734 54.72436523 26.13037109 C53.68067276 26.21558014 52.63698029 26.30078918 51.56166077 26.38858032 C41.35142463 27.15560056 31.20432495 27.2772401 20.97045898 27.26318359 C19.21265143 27.26385924 17.45484398 27.26483142 15.69703674 27.26608276 C12.04557388 27.26754401 8.39413574 27.26545406 4.74267578 27.26074219 C0.07245925 27.25500746 -4.59770026 27.25835736 -9.26791477 27.26431465 C-12.88391041 27.26793051 -16.49989255 27.26677761 -20.1158886 27.26418686 C-21.83861231 27.2635224 -23.56133727 27.2643291 -25.28405952 27.26666641 C-27.68566266 27.26921401 -30.08717327 27.26532439 -32.48876953 27.25976562 C-33.54315216 27.26280197 -33.54315216 27.26280197 -34.61883545 27.26589966 C-38.61127264 27.24883444 -42.35559422 26.87063042 -46.27563477 26.13037109 C-48.09520487 25.97308371 -49.91721372 25.84204788 -51.74047852 25.73583984 C-72.54021099 24.40764661 -92.4314971 21.62965914 -112.27563477 15.13037109 C-111.94563477 14.14037109 -111.61563477 13.15037109 -111.27563477 12.13037109 C-89.84609345 3.56506811 -64.04310523 2.81047936 -41.27563477 1.13037109 C-40.6136911 1.08058105 -39.95174744 1.03079102 -39.26974487 0.97949219 C-26.18607633 0.02936374 -13.11335719 -0.02362276 0 0 Z " fill="#F9F9F9" transform="translate(509.275634765625,355.86962890625)"/>
<path d="M0 0 C4.70392064 3.43843018 7.34990854 6.67670761 9.8125 12 C10.11091797 12.60328125 10.40933594 13.2065625 10.71679688 13.828125 C16.04502558 24.89352095 15.76051576 40.55044682 12.3125 52.1875 C11.59057993 54.14375195 10.82237643 56.08380917 10 58 C9.62617187 58.88816406 9.25234375 59.77632813 8.8671875 60.69140625 C3.54975211 72.22425452 -4.62651854 81.31325927 -16 87 C-16.99 87 -17.98 87 -19 87 C-20.7265625 84.875 -20.7265625 84.875 -22.625 82 C-28.92753445 73.06186024 -35.87183509 67.68516472 -45.59375 62.73828125 C-48 61 -48 61 -48.8203125 58.7109375 C-48.87960937 57.81632812 -48.93890625 56.92171875 -49 56 C-49.09023438 54.96488281 -49.18046875 53.92976563 -49.2734375 52.86328125 C-49.6769359 38.75635635 -46.63679468 24.4448166 -38 13 C-37.47664062 12.28585937 -36.95328125 11.57171875 -36.4140625 10.8359375 C-27.58767613 -0.22812429 -13.33199485 -7.02959728 0 0 Z " fill="#B44625" transform="translate(757,370)"/>
<path d="M0 0 C11.12282776 5.98784817 18.23759885 15.51143184 22.4453125 27.31640625 C22.744375 28.13882812 23.0434375 28.96125 23.3515625 29.80859375 C26.15181338 38.9612656 28.21205864 50.94654946 25.4453125 60.31640625 C22.46187264 64.37980799 17.74797741 66.16600782 13.31835938 68.28125 C5.89828584 72.38202056 -0.05145617 80.32863349 -4.5546875 87.31640625 C-12.04572053 86.31760185 -17.88251728 81.26769014 -22.8359375 75.796875 C-35.00212743 59.81705246 -37.93421826 42.90756414 -36.5546875 23.31640625 C-35.36774214 15.4267106 -31.62975025 7.08865118 -25.71484375 1.61328125 C-17.61359724 -4.34704388 -8.92693017 -4.01571937 0 0 Z " fill="#B54726" transform="translate(290.5546875,369.68359375)"/>
<path d="M0 0 C2.25 0.125 2.25 0.125 5 1 C8.24061454 5.29904106 10.46594736 9.8967511 12.75 14.75 C16.42766672 22.3305677 20.61857611 29.85012932 27.59179688 34.86328125 C31.31206634 39.70898503 30.62096932 44.36021343 30.48828125 50.30078125 C30.48120651 51.49229294 30.47413177 52.68380463 30.46684265 53.91142273 C30.43888186 57.71242372 30.37613474 61.51194514 30.3125 65.3125 C30.28741956 67.89125475 30.26460596 70.47003262 30.24414062 73.04882812 C30.18904931 79.36638918 30.10540375 85.68308888 30 92 C28.10719799 91.54936496 26.21588226 91.09248482 24.32519531 90.63305664 C23.27180969 90.37931778 22.21842407 90.12557892 21.13311768 89.864151 C16.41273597 88.56221376 12.13169403 86.59613796 7.75 84.4375 C6.85031494 84.00058838 5.95062988 83.56367676 5.02368164 83.11352539 C-11.6943537 74.83675672 -36.61808158 62.19259675 -44 44 C-43.67 43.01 -43.34 42.02 -43 41 C-42.02160156 41.04833984 -42.02160156 41.04833984 -41.0234375 41.09765625 C-38.13915408 41.0593693 -35.76700365 40.83595276 -33 40 C-31.10709 38.02634977 -29.9530038 35.97992847 -28.6015625 33.60546875 C-24.17770924 26.40861479 -17.96895422 21.31536539 -10.5625 17.4375 C-6.46501066 15.21824521 -4.33453606 13.87214917 -2.875 9.375 C-2.55948423 7.92163998 -2.2653188 6.46335624 -2 5 C-1.35103764 3.32636023 -0.69419563 1.65538958 0 0 Z " fill="#B54726" transform="translate(322,420)"/>
<path d="M0 0 C1.875 0.3125 1.875 0.3125 4 1 C6.00456206 4.00684309 6.23782548 5.26630681 6.8125 8.6875 C8.26108116 13.77591707 10.46995979 15.34277875 15 17.9375 C16.155 18.57558594 17.31 19.21367187 18.5 19.87109375 C25.60288304 23.9525136 31.82837697 30.36492804 35.5625 37.625 C36.51999051 39.57062426 36.51999051 39.57062426 38 41 C41.35974869 41.94949419 44.5223016 42.108045 48 42 C46.73009174 46.60508837 45.12143957 49.44786025 41.875 52.9375 C41.15054688 53.73027344 40.42609375 54.52304687 39.6796875 55.33984375 C33.60097667 61.37424911 27.27613369 66.42010787 20 70.9375 C19.17693359 71.45256104 18.35386719 71.96762207 17.50585938 72.49829102 C9.90331576 77.18550204 2.08164847 81.21392338 -6 85 C-7.0415625 85.50402344 -8.083125 86.00804687 -9.15625 86.52734375 C-14.42365174 89.02357122 -19.34804047 90.61938514 -25 92 C-25.25505376 84.65416252 -25.42928515 77.30947874 -25.54931641 69.96020508 C-25.59938576 67.4643284 -25.66746544 64.96874181 -25.75439453 62.47387695 C-26.54998495 39.04139922 -26.54998495 39.04139922 -20.2578125 32.296875 C-18.52289178 30.84321381 -16.77216398 29.40801833 -15 28 C-13.12965959 25.48827536 -11.68369413 22.84151723 -10.25 20.0625 C-9.887854 19.39154297 -9.52570801 18.72058594 -9.15258789 18.02929688 C-8.08121267 16.02945977 -7.03564947 14.0185366 -6 12 C-5.67950684 11.37722168 -5.35901367 10.75444336 -5.02880859 10.11279297 C-3.31326189 6.76062741 -1.63763203 3.39086161 0 0 Z " fill="#B44524" transform="translate(698,420)"/>
<path d="M0 0 C0 0.66 0 1.32 0 2 C-0.71285156 2.10957031 -1.42570312 2.21914063 -2.16015625 2.33203125 C-11.61853907 3.59898632 -11.61853907 3.59898632 -19.41015625 8.578125 C-21.48680646 10.43537482 -22.69304712 10.29861575 -25.4375 10.3125 C-27.83967546 10.419532 -27.83967546 10.419532 -30 11 C-30.66 11.99 -31.32 12.98 -32 14 C-32.99 15.485 -32.99 15.485 -34 17 C-36.05859375 17.37109375 -36.05859375 17.37109375 -38.4375 17.4375 C-40.81605383 17.46581273 -40.81605383 17.46581273 -43 18 C-44.52142262 19.650722 -45.49803841 21.37162852 -46.625 23.30859375 C-48.40344039 25.49627753 -49.79249389 25.76507661 -52.5 26.4375 C-55.9697144 27.34220967 -55.9697144 27.34220967 -58.41015625 29.84765625 C-59.17444716 31.27519622 -59.93234245 32.70618 -60.68359375 34.140625 C-62.66386792 36.93768881 -65.00169284 37.42572454 -68.1953125 38.34765625 C-70.69693058 39.25192079 -71.73846719 40.71347179 -73 43 C-82.51432523 40.74660718 -89.43303703 34.45506028 -94.59375 26.421875 C-97.59599741 21.2513378 -99.45062285 17.15851232 -99 11 C-69.84158504 -5.06688171 -31.82914677 -7.88686823 0 0 Z " fill="#B54B29" transform="translate(448,261)"/>
<path d="M0 0 C0.20160891 10.01471969 -4.30019675 18.07078329 -11.140625 25.3046875 C-14.86097659 28.69677278 -18.54526481 32 -23.75 32 C-26 31 -26 31 -27.8125 29.625 C-29.97485708 28.0186776 -31.53143693 27.43789617 -34.0625 26.625 C-37.09829945 25.55088101 -37.90414369 25.11982038 -40 22.5 C-41 20 -41 20 -41 17 C-41.88751953 16.90525391 -41.88751953 16.90525391 -42.79296875 16.80859375 C-49.3302212 15.79547959 -49.3302212 15.79547959 -51.39453125 13.34375 C-51.75933594 12.7146875 -52.12414062 12.085625 -52.5 11.4375 C-53.54855147 9.50910995 -53.54855147 9.50910995 -55 8 C-57.34928291 7.49020986 -59.5419602 7.43807336 -61.94140625 7.37109375 C-62.62074219 7.24863281 -63.30007813 7.12617188 -64 7 C-65.33333333 5 -66.66666667 3 -68 1 C-70.22990047 0.49604249 -72.34685567 0.43336495 -74.62890625 0.3359375 C-78.08961092 -0.15437651 -80.33075485 -1.85228235 -83.171875 -3.79296875 C-88.27344488 -7.16131296 -94.07157926 -7.4993778 -100 -8 C-99.67 -8.66 -99.34 -9.32 -99 -10 C-96.61319118 -10.62199881 -94.29631906 -11.12583082 -91.875 -11.5625 C-91.22273437 -11.68818359 -90.57046875 -11.81386719 -89.8984375 -11.94335938 C-58.33368656 -17.92437865 -29.65820368 -10.28166728 0 0 Z " fill="#B44726" transform="translate(675,271)"/>
<path d="M0 0 C10.65347932 0.05092062 10.65347932 0.05092062 15.10546875 4.26171875 C26.27731969 18.3930004 31.17037277 31.32116593 29.875 49.5 C28.82817622 55.27557948 26.71351974 60.36363095 23.875 65.5 C23.215 65.5 22.555 65.5 21.875 65.5 C21.66746094 64.89414062 21.45992187 64.28828125 21.24609375 63.6640625 C16.39729153 50.47694348 8.37316732 41.05594478 -4.25 34.6875 C-11.22879655 31.71523557 -18.67227226 30.65017003 -26.125 29.5 C-24.92212724 22.04218888 -22.28906681 16.77228932 -18.125 10.5 C-18.785 10.17 -19.445 9.84 -20.125 9.5 C-19.07699219 8.77683594 -19.07699219 8.77683594 -18.0078125 8.0390625 C-17.09773437 7.40742187 -16.18765625 6.77578125 -15.25 6.125 C-14.34507812 5.49851562 -13.44015625 4.87203125 -12.5078125 4.2265625 C-7.93030284 0.90974402 -5.76184136 0.0401819 0 0 Z " fill="#B34726" transform="translate(652.125,607.5)"/>
<path d="M0 0 C0.80308594 -0.02449219 1.60617187 -0.04898438 2.43359375 -0.07421875 C6.33132215 -0.09348265 8.56620884 0.04233146 11.97265625 2.0703125 C17.63968796 8.13845897 24.96325863 18.02459543 25.22265625 26.60546875 C25.19042969 27.51941406 25.15820312 28.43335938 25.125 29.375 C24.20460938 29.51035156 23.28421875 29.64570312 22.3359375 29.78515625 C7.64112563 32.28417212 -5.68574214 37.79393135 -14.90625 50.08203125 C-18.20412704 55.02208887 -20.70735697 59.53678484 -21.875 65.375 C-22.535 65.375 -23.195 65.375 -23.875 65.375 C-24.69775672 63.83878265 -25.50772577 62.29571368 -26.3125 60.75 C-26.76496094 59.89148438 -27.21742188 59.03296875 -27.68359375 58.1484375 C-31.6364103 48.94679897 -31.286064 35.0718991 -27.90625 25.73046875 C-22.26067709 12.83546698 -15.13549707 0.02406279 0 0 Z " fill="#B44524" transform="translate(361.875,607.625)"/>
<path d="M0 0 C0.12552263 6.20313502 0.2152272 12.40549824 0.2746582 18.60961914 C0.29948571 20.71098743 0.33335975 22.8122724 0.37719727 24.91333008 C0.85891895 48.63103903 -2.73921622 68.79783353 -19.6796875 86.53515625 C-23.70392806 90.81006499 -27.32248594 95.42701561 -31 100 C-31.33 99.34 -31.66 98.68 -32 98 C-30.58538761 94.92542239 -29.03071611 91.97034337 -27.41992188 88.99609375 C-26.21415586 86.69233969 -25.10738878 84.35269175 -24 82 C-23.46866455 80.96609131 -22.9373291 79.93218262 -22.38989258 78.86694336 C-16.20342353 65.75192396 -17.43380325 51.99013216 -17.8125 37.8125 C-17.89559088 34.04836255 -17.96956908 30.28457639 -18.02604675 26.51994324 C-18.06260184 24.19353919 -18.11520074 21.86731639 -18.18598938 19.54170227 C-18.20558212 18.49258163 -18.22517487 17.443461 -18.24536133 16.36254883 C-18.27012039 15.44484207 -18.29487946 14.52713531 -18.32038879 13.58161926 C-17.92528465 10.39796088 -16.88021411 8.57881285 -15 6 C-12.1875 4.19921875 -12.1875 4.19921875 -9 2.6875 C-7.948125 2.17574219 -6.89625 1.66398438 -5.8125 1.13671875 C-3 0 -3 0 0 0 Z " fill="#B24929" transform="translate(721,627)"/>
<path d="M0 0 C0.5067183 3.54073904 1.00417029 7.08272111 1.5 10.625 C1.64308594 11.62402344 1.78617188 12.62304688 1.93359375 13.65234375 C3.46052741 24.63172391 3.46052741 24.63172391 3 28 C1.3203125 29.57421875 1.3203125 29.57421875 -0.875 30.6875 C-4.01902319 32.327125 -4.94526418 32.91789627 -7 36 C-8.953125 36.1171875 -8.953125 36.1171875 -11.25 35.875 C-14.82234647 35.74269087 -16.66612696 36.00644391 -19.4375 38.3125 C-22.07138316 40.91996138 -22.07138316 40.91996138 -24 44 C-25.98634334 44.19537803 -27.97288272 44.38928864 -29.9609375 44.56640625 C-33.37822179 45.29307015 -34.93772852 47.31279777 -37 50 C-37.12375 50.70125 -37.2475 51.4025 -37.375 52.125 C-37.58125 52.74375 -37.7875 53.3625 -38 54 C-39.66035883 54.69735071 -41.32544486 55.38621732 -43.015625 56.0078125 C-46.15310247 57.57655124 -48.26012643 60.02161674 -50.6171875 62.57421875 C-51.07351563 63.04472656 -51.52984375 63.51523437 -52 64 C-52.33 64 -52.66 64 -53 64 C-51.69984872 46.77299558 -41.68434074 33.04418457 -30 21 C-29.4121875 20.33871094 -28.824375 19.67742188 -28.21875 18.99609375 C-22.45524861 12.73966132 -9.07038732 0 0 0 Z " fill="#B14625" transform="translate(582,667)"/>
<path d="M0 0 C4.90878295 1.36107164 8.68646177 3.57400483 12.75 6.5625 C13.36053223 7.00650146 13.97106445 7.45050293 14.60009766 7.90795898 C20.05608841 11.93445439 25.16022051 16.24498022 30 21 C30.68449219 21.67160156 31.36898437 22.34320312 32.07421875 23.03515625 C40.43424545 31.82221772 51.12474755 46.54965438 51.25 59.125 C51.1675 60.07375 51.085 61.0225 51 62 C50.49210937 61.60167969 49.98421875 61.20335937 49.4609375 60.79296875 C46.23115924 58.30712818 43.3697167 56.16431853 39.625 54.5 C37 53 37 53 35.75 49.9375 C35.5025 48.968125 35.255 47.99875 35 47 C32.41073669 44.41073669 30.97294721 44.62601957 27.375 44.375 C26.37210937 44.30023437 25.36921875 44.22546875 24.3359375 44.1484375 C23.56507813 44.09945312 22.79421875 44.05046875 22 44 C21.70222656 43.21109375 21.40445312 42.4221875 21.09765625 41.609375 C19.77318663 38.46081378 19.03849935 37.5582048 16 36 C14.50331448 35.84013304 13.00227766 35.71873818 11.5 35.625 C7.2628341 35.29375576 7.2628341 35.29375576 4.875 32.625 C4.25625 31.75875 3.6375 30.8925 3 30 C0.71672489 28.72874421 -1.53336077 27.90127203 -4 27 C-4.15191 21.17458174 -3.64099146 15.84351286 -2.5625 10.125 C-2.42779297 9.36703125 -2.29308594 8.6090625 -2.15429688 7.828125 C-1.1437872 2.2875744 -1.1437872 2.2875744 0 0 Z " fill="#B24827" transform="translate(432,668)"/>
<path d="M0 0 C4.78164773 0.59341977 7.9374797 1.16607535 11.875 4 C12.63554687 4.53625 13.39609375 5.0725 14.1796875 5.625 C16 7 16 7 17 8 C17.09701792 9.69509225 17.12515905 11.39417485 17.12597656 13.09204102 C17.12978333 14.18150528 17.13359009 15.27096954 17.13751221 16.39344788 C17.13853943 17.58489914 17.13956665 18.7763504 17.140625 20.00390625 C17.15897903 22.52539947 17.17855166 25.04688405 17.19921875 27.56835938 C17.22798819 31.54415001 17.2499946 35.51897274 17.25048828 39.49487305 C17.14673957 60.77471839 17.14673957 60.77471839 23 81 C23.5580835 82.26082397 23.5580835 82.26082397 24.12744141 83.54711914 C25.07290604 85.50615202 26.0869113 87.37492295 27.1875 89.25 C27.86862984 90.46346295 28.54962373 91.67700222 29.23046875 92.890625 C30.10638672 94.42976562 30.10638672 94.42976562 31 96 C31.6786281 97.32728525 32.35200729 98.65749202 33 100 C24.1764269 92.90277816 16.77528661 84.59115226 10.47265625 75.19140625 C9.05275752 73.00072516 9.05275752 73.00072516 7.44140625 71.11328125 C5.59352587 68.40405826 4.80462507 65.76522957 3.875 62.625 C3.54242188 61.52414062 3.20984375 60.42328125 2.8671875 59.2890625 C-0.80881766 45.34673662 -0.14425565 30.32112252 -0.0625 16 C-0.0574649 14.4348973 -0.05290562 12.86979299 -0.04882812 11.3046875 C-0.03800474 7.53641734 -0.02085616 3.76822743 0 0 Z " fill="#B14828" transform="translate(293,628)"/>
<path d="M0 0 C5.49061685 0.6615201 7.3195268 2.99988898 10.765625 7.09375 C29.26840508 31.16030311 39.61626792 51.8631406 36.73339844 82.8671875 C36.1389019 87.31811201 35.39366139 91.72312169 34 96 C33.01 96.495 33.01 96.495 32 97 C31.92483154 96.40687012 31.84966309 95.81374023 31.7722168 95.20263672 C29.5376976 71.88264236 29.5376976 71.88264236 20 51 C19.54270508 50.36078613 19.08541016 49.72157227 18.61425781 49.06298828 C16.43623414 46.02601599 14.24880672 42.99620614 12.04614258 39.97705078 C8.3638303 34.92645048 4.77936723 29.82594813 1.3125 24.625 C0.90290039 24.01309814 0.49330078 23.40119629 0.07128906 22.77075195 C-5.03942536 15.04477211 -5.03942536 15.04477211 -4.875 10.6875 C-3.86532039 6.43242165 -2.32620419 3.6769034 0 0 Z " fill="#B14726" transform="translate(717,573)"/>
<path d="M0 0 C0.84850459 1.53336901 1.67814945 3.07718146 2.5 4.625 C2.9640625 5.48351562 3.428125 6.34203125 3.90625 7.2265625 C5.26189502 10.66409093 5.63285834 12.32151088 5 16 C3.11227223 19.43560275 0.82815343 22.53917146 -1.5 25.6875 C-2.14203369 26.57945068 -2.78406738 27.47140137 -3.44555664 28.39038086 C-5.28307512 30.93747524 -7.13778158 33.47093104 -9 36 C-9.82193598 37.12216049 -10.64360896 38.24451375 -11.46484375 39.3671875 C-12.11582031 40.25664063 -12.76679688 41.14609375 -13.4375 42.0625 C-17.2110562 47.22588847 -20.74439154 52.49370304 -24 58 C-24.60328125 59.01900391 -24.60328125 59.01900391 -25.21875 60.05859375 C-30.77465178 70.85472107 -31.32340338 85.1012318 -32 97 C-32.66 96.67 -33.32 96.34 -34 96 C-36.37653865 86.18577557 -36.25754151 75.72096298 -36.375 65.6875 C-36.40094238 64.50824951 -36.42688477 63.32899902 -36.45361328 62.11401367 C-36.4789907 50.0656629 -32.46766711 41.07923345 -26.5 30.8125 C-25.98171631 29.914104 -25.46343262 29.01570801 -24.92944336 28.09008789 C-21.43233936 22.14780288 -17.68673117 16.46259675 -13.5625 10.9375 C-13.07910156 10.28950439 -12.59570312 9.64150879 -12.09765625 8.97387695 C-5.16969334 0 -5.16969334 0 0 0 Z " fill="#B14727" transform="translate(297,573)"/>
<path d="M0 0 C14.89424074 4.50088735 26.81863442 16.66251107 38 27 C38.63808594 27.56074219 39.27617188 28.12148438 39.93359375 28.69921875 C52.37908476 40.14685302 58.3241815 59.53074927 60 76 C60.02334038 77.66650323 60.02944181 79.3335934 60 81 C56.899521 77.25973962 54.88365838 73.05030674 52.6875 68.75 C45.75023391 55.44446378 37.36992844 46.46555329 25.25 37.625 C18.75000442 32.81962496 12.31396678 28.00538506 6.1484375 22.7734375 C4.07582095 20.99856743 4.07582095 20.99856743 1.9765625 19.6640625 C0.25 18.5 0.25 18.5 -2 16 C-2.25615365 12.86658553 -1.66589917 10.05377196 -1 7 C-0.8021652 5.64730454 -0.6134948 4.29320994 -0.4375 2.9375 C-0.293125 1.968125 -0.14875 0.99875 0 0 Z " fill="#B14827" transform="translate(715,526)"/>
<path d="M0 0 C0.721875 0.226875 1.44375 0.45375 2.1875 0.6875 C4.68447607 9.89509926 4.68447607 9.89509926 4.1875 13.6875 C-2.62695301 22.28371367 -13.30009621 28.64637796 -22.04296875 35.1328125 C-33.9106182 43.94931182 -43.36565489 52.39320428 -50.625 65.4375 C-51.10130859 66.27410156 -51.57761719 67.11070312 -52.06835938 67.97265625 C-54.07144527 71.50552504 -56.01941006 75.04279958 -57.8125 78.6875 C-58.73087582 75.70757484 -58.83156796 73.64512915 -58.2109375 70.59765625 C-58.05318848 69.8195459 -57.89543945 69.04143555 -57.73291016 68.23974609 C-57.5529248 67.41812988 -57.37293945 66.59651367 -57.1875 65.75 C-57.00364746 64.90260254 -56.81979492 64.05520508 -56.63037109 63.18212891 C-51.36517479 39.93155074 -38.26238085 25.89572982 -19.8125 11.6875 C-19.2973584 11.29014648 -18.7822168 10.89279297 -18.25146484 10.48339844 C-4.03053752 -0.4478375 -4.03053752 -0.4478375 0 0 Z " fill="#B24423" transform="translate(297.8125,527.3125)"/>
<path d="M0 0 C5.6416777 0.38334477 10.87038407 2.02040558 16.25 3.6875 C17.10956299 3.95006592 17.96912598 4.21263184 18.85473633 4.4831543 C21.57177553 5.3159111 24.28603438 6.15728544 27 7 C28.36874268 7.42200684 28.36874268 7.42200684 29.76513672 7.85253906 C32.40737814 8.66793486 35.04783506 9.48880524 37.6875 10.3125 C38.50702148 10.56668701 39.32654297 10.82087402 40.17089844 11.08276367 C45.88291946 12.88291946 45.88291946 12.88291946 47 14 C47.07319621 16.69654854 47.09242537 19.36691458 47.0625 22.0625 C47.05798828 22.82111328 47.05347656 23.57972656 47.04882812 24.36132812 C47.0370068 26.24091871 47.01907078 28.12046899 47 30 C39.723913 29.43332656 33.15994096 27.80112776 26.1875 25.6875 C25.13030762 25.37280762 24.07311523 25.05811523 22.98388672 24.73388672 C4.23839389 19.11919694 4.23839389 19.11919694 0 17 C-1.62831046 12.2256329 -2.49014803 7.0240173 -2 2 C-1.34 1.34 -0.68 0.68 0 0 Z " fill="#B34928" transform="translate(305,523)"/>
<path d="M0 0 C0.328125 2.16015625 0.328125 2.16015625 0 5 C-1.70446852 7.01891357 -3.30466213 8.68768591 -5.25 10.4375 C-8.24996759 13.19731271 -10.87282333 15.80477678 -13.1171875 19.25 C-15.05505985 22.08041937 -15.65975562 22.76807191 -18.875 23.5625 C-24.24748951 25.03904513 -29.37108666 27.01337684 -34.5703125 29.01171875 C-38.98281648 30.28320338 -42.93462391 31.0104797 -47.1796875 28.93359375 C-50.5215436 25.98444424 -51.85230054 24.61049112 -52.9375 20.125 C-52.958125 19.09375 -52.97875 18.0625 -53 17 C-40.79334767 10.06858436 -27.02383338 6.51813194 -13.625 2.625 C-12.72740967 2.36211182 -11.82981934 2.09922363 -10.9050293 1.82836914 C-10.06238525 1.58852295 -9.21974121 1.34867676 -8.3515625 1.1015625 C-7.60729004 0.88838379 -6.86301758 0.67520508 -6.09619141 0.45556641 C-4 0 -4 0 0 0 Z " fill="#B24828" transform="translate(351,599)"/>
<path d="M0 0 C15.84 0 31.68 0 48 0 C48 5.61 48 11.22 48 17 C33.48 17 18.96 17 4 17 C0 9 0 9 0 0 Z " fill="#B14221" transform="translate(303,568)"/>
<path d="M0 0 C15.43326338 2.67190865 29.52830105 8.11446127 44 14 C44.1953125 19.734375 44.1953125 19.734375 42.4375 22.125 C34.65026178 28.11518325 34.65026178 28.11518325 29.921875 27.78515625 C6.11104998 23.01824805 6.11104998 23.01824805 -0.25 14.25 C-1.86814878 11.49144161 -2.98909677 9.0327097 -4 6 C-3.01 5.67 -2.02 5.34 -1 5 C-0.67 3.35 -0.34 1.7 0 0 Z " fill="#B14827" transform="translate(673,601)"/>
<path d="M0 0 C4.65414766 2.20954485 7.39063863 5.00286322 10.0625 9.375 C11.5600885 15.16567555 11.03956258 19.03225654 8.25 24.3125 C5.19862118 27.95720248 3.24958758 29.7557009 -1.58984375 30.28125 C-11.05520806 30.58617449 -11.05520806 30.58617449 -15 27 C-18.65666079 22.12445228 -20.42736478 18.31201074 -20.34765625 12.12890625 C-19.56537993 7.33856249 -16.3255031 4.17401703 -12.8125 1.0625 C-8.46245582 -0.58085003 -4.57716733 -0.84865412 0 0 Z " fill="#B04626" transform="translate(420,564)"/>
<path d="M0 0 C4.74659108 2.4554165 9.06570061 5.92246411 11 11 C11.53536426 16.62132473 11.21166245 20.18250633 8 25 C4.31273922 28.72755871 1.09599553 30.75341229 -4.1875 31.375 C-9.15683025 30.88621342 -12.21905742 29.2018793 -16 26 C-19.34089207 21.61507916 -19.62731791 17.06651819 -19.48828125 11.6953125 C-18.70033823 7.34586705 -16.41953292 4.69013713 -13 2 C-8.75261807 -0.52616466 -4.8329386 -0.91112777 0 0 Z " fill="#B34828" transform="translate(419,479)"/>
<path d="M0 0 C2.13524156 1.43002417 4.15772917 2.872936 6.1875 4.4375 C6.73341797 4.84548828 7.27933594 5.25347656 7.84179688 5.67382812 C11.86489292 8.72978584 11.86489292 8.72978584 13 11 C6.33992846 13.14031025 -0.32064822 15.10712452 -7.1027832 16.81542969 C-25.6264953 21.50013623 -38.27578895 28.94922739 -52 42 C-52.33 41.34 -52.66 40.68 -53 40 C-43.61164895 19.54915139 -27.86806135 8.41450422 -7.75390625 0.203125 C-3.36011174 -1.20508386 -3.36011174 -1.20508386 0 0 Z " fill="#B14525" transform="translate(297,500)"/>
<path d="M0 0 C4.24193761 2.67426502 8.32886991 5.89299515 9.875 10.8125 C10.33104898 15.52500609 10.37319138 17.81611725 8.25 22.0625 C4.95226436 25.88093074 2.40241047 28.36963049 -2.7109375 29.265625 C-7.74480579 29.56903624 -11.21589369 29.33616712 -15.1875 26.0625 C-19.05063254 22.32215651 -20.44294824 18.86294145 -20.625 13.5 C-20.54265469 8.36714212 -19.36109776 5.80129794 -15.828125 2.15234375 C-10.81372244 -1.79247294 -6.01649194 -2.28626694 0 0 Z " fill="#B24625" transform="translate(420.125,402.1875)"/>
<path d="M0 0 C1 1 1 1 1.01953125 3.8359375 C0.95121094 5.00382813 0.88289062 6.17171875 0.8125 7.375 C0.75707031 8.53773438 0.70164062 9.70046875 0.64453125 10.8984375 C0 14 0 14 -1.67578125 15.5546875 C-4.3270321 17.2033645 -6.88172413 18.20357886 -9.83203125 19.2265625 C-10.96060547 19.6184375 -12.08917969 20.0103125 -13.25195312 20.4140625 C-14.42693359 20.81367187 -15.60191406 21.21328125 -16.8125 21.625 C-17.97587891 22.03234375 -19.13925781 22.4396875 -20.33789062 22.859375 C-26.05052162 24.82319351 -30.9416359 26.13451941 -37 27 C-37 21.06 -37 15.12 -37 9 C-29.12893553 5.62668666 -29.12893553 5.62668666 -25.80859375 4.68359375 C-25.09123047 4.47669922 -24.37386719 4.26980469 -23.63476562 4.05664062 C-22.90966797 3.85232422 -22.18457031 3.64800781 -21.4375 3.4375 C-19.97756995 3.02056153 -18.51792861 2.60261069 -17.05859375 2.18359375 C-16.36644775 1.98660889 -15.67430176 1.78962402 -14.96118164 1.58666992 C-13.19295991 1.05772223 -11.44952243 0.44757331 -9.7109375 -0.171875 C-6.18379402 -1.24933093 -3.56850775 -0.76967814 0 0 Z " fill="#B24827" transform="translate(710,524)"/>
<path d="M0 0 C5.25111196 -0.02290839 10.50205178 -0.04283563 15.75317383 -0.05493164 C17.54094021 -0.05997218 19.32870245 -0.06680454 21.11645508 -0.07543945 C23.68051168 -0.0875173 26.24451397 -0.09323094 28.80859375 -0.09765625 C29.6127623 -0.10281754 30.41693085 -0.10797882 31.24546814 -0.11329651 C33.16401715 -0.11349215 35.08245368 -0.06201983 37 0 C38.54076187 1.54076187 38.24356699 2.9844485 38.3125 5.125 C38.27228282 10.16019144 36.88936359 12.92089846 34 17 C31.04189524 18.47905238 28.0452845 18.12190903 24.8046875 18.09765625 C24.09724396 18.0962413 23.38980042 18.09482635 22.66091919 18.09336853 C20.39890331 18.087766 18.13698602 18.07521318 15.875 18.0625 C14.34244935 18.05748532 12.80989714 18.05292236 11.27734375 18.04882812 C7.51816053 18.03864616 3.75919076 18.01907143 0 18 C0 12.06 0 6.12 0 0 Z " fill="#B04322" transform="translate(673,567)"/>
<path d="M0 0 C10.01148303 4.21536128 18.444226 9.05265998 26 17 C26.55816406 17.56203125 27.11632812 18.1240625 27.69140625 18.703125 C32.0046342 23.34294202 39 31.56302916 39 38 C38.34 38 37.68 38 37 38 C37 37.34 37 36.68 37 36 C36.43023438 35.74605469 35.86046875 35.49210938 35.2734375 35.23046875 C32.72995515 33.85384171 30.80779437 32.20847668 28.625 30.3125 C15.27230276 19.60332808 -3.24522524 13.08467136 -20 10 C-20 9.34 -20 8.68 -20 8 C-17.63349128 6.32409509 -15.29110082 4.80427184 -12.8125 3.3125 C-12.13896484 2.88388672 -11.46542969 2.45527344 -10.77148438 2.01367188 C-4.50144365 -1.78505524 -4.50144365 -1.78505524 0 0 Z " fill="#B04927" transform="translate(729,503)"/>
<path d="M0 0 C-1.54034877 4.19478626 -4.6147626 6.33982458 -8.0625 8.9375 C-8.67448242 9.40913574 -9.28646484 9.88077148 -9.91699219 10.36669922 C-12.65373878 12.47109669 -15.40781392 14.55228217 -18.16162109 16.63427734 C-36.60599668 30.57942398 -48.40899028 43.49907444 -59 64 C-60.01498547 60.82540369 -59.94466465 58.69122329 -59.22265625 55.453125 C-58.94711914 54.18662109 -58.94711914 54.18662109 -58.66601562 52.89453125 C-58.36727539 51.58548828 -58.36727539 51.58548828 -58.0625 50.25 C-57.86720703 49.36183594 -57.67191406 48.47367188 -57.47070312 47.55859375 C-56.98838288 45.37050678 -56.49790968 43.1845827 -56 41 C-55.15937603 44.09773244 -54.91064799 46.78332751 -55 50 C-54.731875 49.443125 -54.46375 48.88625 -54.1875 48.3125 C-52.89100504 45.78774666 -51.57523677 43.36285516 -50 41 C-49.34 41 -48.68 41 -48 41 C-47.73445312 40.41863281 -47.46890625 39.83726562 -47.1953125 39.23828125 C-41.76358777 29.06711043 -30.63094727 20.88955698 -21 15 C-20.34 15 -19.68 15 -19 15 C-19 14.34 -19 13.68 -19 13 C-17.3125 11.484375 -17.3125 11.484375 -15 9.75 C-14.18402344 9.13511719 -13.36804688 8.52023437 -12.52734375 7.88671875 C-11.69332031 7.26410156 -10.85929687 6.64148438 -10 6 C-9.23816406 5.40832031 -8.47632813 4.81664062 -7.69140625 4.20703125 C-6.63759766 3.39298828 -6.63759766 3.39298828 -5.5625 2.5625 C-4.60537109 1.82193359 -4.60537109 1.82193359 -3.62890625 1.06640625 C-2 0 -2 0 0 0 Z " fill="#A94D31" transform="translate(299,542)"/>
<path d="M0 0 C4.06346223 1.06933216 7.28679211 2.7208693 10.8125 4.9375 C15.37450941 7.76885333 19.83683322 9.57825842 25 11 C22.69181468 13.30818532 20.587991 14.26663147 17.625 15.625 C16.66851562 16.07101562 15.71203125 16.51703125 14.7265625 16.9765625 C12 18 12 18 8 18 C7.67386719 17.20335937 7.34773438 16.40671875 7.01171875 15.5859375 C4.83151782 10.29943258 2.67011492 5.05916511 0 0 Z " fill="#A23E1E" transform="translate(386,613)"/>
<path d="M0 0 C0.66 0.33 1.32 0.66 2 1 C1.06725891 2.12894876 0.12859878 3.25300876 -0.8125 4.375 C-1.33457031 5.00148438 -1.85664063 5.62796875 -2.39453125 6.2734375 C-4 8 -4 8 -7 10 C-7.99 10 -8.98 10 -10 10 C-10.37040405 10.85936157 -10.37040405 10.85936157 -10.74829102 11.73608398 C-12.20046785 14.36257819 -13.8904066 16.11660999 -16.02734375 18.22265625 C-16.81947266 19.00833984 -17.61160156 19.79402344 -18.42773438 20.60351562 C-19.25595703 21.41498047 -20.08417969 22.22644531 -20.9375 23.0625 C-21.76185547 23.87783203 -22.58621094 24.69316406 -23.43554688 25.53320312 C-24.96771163 27.04794277 -26.50192082 28.56061923 -28.03881836 30.07055664 C-29.70083892 31.70568031 -31.35430546 33.34847312 -33 35 C-33 30.62095107 -32.83739692 30.31391911 -30.0625 27.3125 C-29.09763672 26.26835938 -29.09763672 26.26835938 -28.11328125 25.203125 C-27.06720703 24.11257813 -27.06720703 24.11257813 -26 23 C-25.31292969 22.27296875 -24.62585938 21.5459375 -23.91796875 20.796875 C-18.32674425 15.03438777 -12.2698881 10.00236442 -6 5 C-3.99159308 3.34306429 -1.99577786 1.6721382 0 0 Z " fill="#AC4A2F" transform="translate(284,534)"/>
<path d="M0 0 C0.66 0.66 1.32 1.32 2 2 C-6.58342235 14.939963 -17.2542163 26.47957949 -31 34 C-31.66 34 -32.32 34 -33 34 C-31.82201148 30.46603445 -31.14651295 30.22865981 -28.0625 28.375 C-21.12473251 23.93394501 -15.22571703 18.33039125 -9.5 12.4375 C-7 10 -7 10 -5 10 C-4.9175 9.46375 -4.835 8.9275 -4.75 8.375 C-3.73623902 5.1647569 -1.92839451 2.73707608 0 0 Z " fill="#AD4E32" transform="translate(660,706)"/>
<path d="M0 0 C1.01771484 0.00451172 2.03542969 0.00902344 3.08398438 0.01367188 C5.57688509 0.02537563 8.06966074 0.04177152 10.5625 0.0625 C10.5625 0.3925 10.5625 0.7225 10.5625 1.0625 C3.6325 1.0625 -3.2975 1.0625 -10.4375 1.0625 C-10.4375 1.7225 -10.4375 2.3825 -10.4375 3.0625 C-14.0675 3.3925 -17.6975 3.7225 -21.4375 4.0625 C-21.1075 5.3825 -20.7775 6.7025 -20.4375 8.0625 C-25.0575 7.4025 -29.6775 6.7425 -34.4375 6.0625 C-34.1075 5.4025 -33.7775 4.7425 -33.4375 4.0625 C-31.05069118 3.44050119 -28.73381906 2.93666918 -26.3125 2.5 C-25.66023437 2.37431641 -25.00796875 2.24863281 -24.3359375 2.11914062 C-22.37341394 1.74727356 -20.40539127 1.40482701 -18.4375 1.0625 C-17.35597656 0.86914062 -16.27445313 0.67578125 -15.16015625 0.4765625 C-10.09637818 -0.0866699 -5.09005846 -0.04305189 0 0 Z " fill="#B46E56" transform="translate(609.4375,256.9375)"/>
<path d="M0 0 C0.80937012 0.00193359 1.61874023 0.00386719 2.45263672 0.00585938 C4.7734375 0.0859375 4.7734375 0.0859375 8.625 0.625 C9.285 1.615 9.945 2.605 10.625 3.625 C9.38363281 3.60179687 8.14226562 3.57859375 6.86328125 3.5546875 C5.2213602 3.53592269 3.57943262 3.51772325 1.9375 3.5 C1.12087891 3.48324219 0.30425781 3.46648438 -0.53710938 3.44921875 C-4.89444187 3.41393671 -8.47123888 3.42913437 -12.375 5.625 C-13.71910262 7.64235205 -13.71910262 7.64235205 -14.375 9.625 C-15.365 8.965 -16.355 8.305 -17.375 7.625 C-12.5896544 1.06606478 -7.73317083 -0.04276689 0 0 Z " fill="#A84B2F" transform="translate(362.375,607.375)"/>
<path d="M0 0 C0.33 0 0.66 0 1 0 C1.33 16.83 1.66 33.66 2 51 C0.515 51.495 0.515 51.495 -1 52 C-0.67 34.84 -0.34 17.68 0 0 Z " fill="#A33C20" transform="translate(674,460)"/>
<path d="M0 0 C0.33 0.99 0.66 1.98 1 3 C0.01 4.485 0.01 4.485 -1 6 C0.65 5.34 2.3 4.68 4 4 C2.4561393 7.83333593 0.07543723 9.98308208 -3 12.6875 C-3.886875 13.47511719 -4.77375 14.26273438 -5.6875 15.07421875 C-8 17 -8 17 -10 18 C-8.64737628 13.25869791 -6.66645646 9.67711421 -3.875 5.625 C-3.15054688 4.56539062 -2.42609375 3.50578125 -1.6796875 2.4140625 C-0.84824219 1.21910156 -0.84824219 1.21910156 0 0 Z " fill="#AB593E" transform="translate(254,524)"/>
<path d="M0 0 C5.25105442 -0.02464928 10.50207545 -0.04283568 15.75317383 -0.05493164 C17.54094021 -0.05997218 19.32870245 -0.06680454 21.11645508 -0.07543945 C23.68051168 -0.0875173 26.24451397 -0.09323094 28.80859375 -0.09765625 C29.6127623 -0.10281754 30.41693085 -0.10797882 31.24546814 -0.11329651 C33.16401715 -0.11349215 35.08245368 -0.06201983 37 0 C38 1 38 1 38.09765625 3.06640625 C38.08605469 3.89011719 38.07445312 4.71382812 38.0625 5.5625 C38.05347656 6.38878906 38.04445313 7.21507812 38.03515625 8.06640625 C38.02355469 8.70449219 38.01195312 9.34257813 38 10 C37.67 10 37.34 10 37 10 C36.34 7.69 35.68 5.38 35 3 C23.45 2.34 11.9 1.68 0 1 C0 0.67 0 0.34 0 0 Z " fill="#AB6149" transform="translate(673,567)"/>
<path d="M0 0 C1.65 0 3.3 0 5 0 C4.34 0.66 3.68 1.32 3 2 C2.53513282 5.12196336 2.53513282 5.12196336 2.375 8.625 C2.30023437 9.81351563 2.22546875 11.00203125 2.1484375 12.2265625 C2.09945312 13.14179687 2.05046875 14.05703125 2 15 C3.03125 14.67 4.0625 14.34 5.125 14 C8.48426709 13.0284808 11.49106202 12.82883229 15 13 C12.18178397 14.87881069 10.14357281 15.69009217 6.9375 16.625 C5.62072266 17.01558594 5.62072266 17.01558594 4.27734375 17.4140625 C2 18 2 18 0 18 C0 12.06 0 6.12 0 0 Z " fill="#AC4D31" transform="translate(673,533)"/>
<path d="M0 0 C2.96189509 2.55518711 4.37278003 5.44137864 6.0625 8.9375 C6.56910156 9.97777344 7.07570313 11.01804687 7.59765625 12.08984375 C8.06042969 13.05019531 8.52320313 14.01054688 9 15 C9.66403553 16.33464566 10.32948627 17.66859714 11 19 C0.45870002 10.48587309 0.45870002 10.48587309 -2 6 C-1.375 2.5625 -1.375 2.5625 0 0 Z " fill="#AB5233" transform="translate(315,709)"/>
<path d="M0 0 C0.33 0 0.66 0 1 0 C1.44353623 12.02836128 1.69275599 22.7080559 -3 34 C-3.33 34 -3.66 34 -4 34 C-4.25088161 26.59899244 -4.25088161 26.59899244 -3.02734375 23.67773438 C-1.99315156 20.98214978 -1.61329687 18.78338495 -1.3671875 15.91796875 C-1.24150391 14.52094727 -1.24150391 14.52094727 -1.11328125 13.09570312 C-1.03464844 12.13599609 -0.95601562 11.17628906 -0.875 10.1875 C-0.74544922 8.71893555 -0.74544922 8.71893555 -0.61328125 7.22070312 C-0.40198821 4.81431022 -0.19779237 2.40753388 0 0 Z " fill="#B16147" transform="translate(770,394)"/>
<path d="M0 0 C0.66 0.33 1.32 0.66 2 1 C-1.76774711 4.88192126 -5.62797789 8.79531881 -10 12 C-10.66 12 -11.32 12 -12 12 C-12.2475 12.639375 -12.495 13.27875 -12.75 13.9375 C-14 16 -14 16 -16.078125 16.62890625 C-16.71234375 16.75136719 -17.3465625 16.87382813 -18 17 C-13.04925445 10.87670945 -7.13355849 3.56677924 0 0 Z " fill="#AA4B2F" transform="translate(566,676)"/>
<path d="M0 0 C0.33 0.66 0.66 1.32 1 2 C-7.56286722 11.94477086 -7.56286722 11.94477086 -11 15 C-11.99 15 -12.98 15 -14 15 C-12.41948722 11.14750011 -9.94555446 8.71095984 -7 5.8125 C-6.113125 4.93207031 -5.22625 4.05164063 -4.3125 3.14453125 C-2 1 -2 1 0 0 Z " fill="#AB5130" transform="translate(307,440)"/>
<path d="M0 0 C0.66 0.66 1.32 1.32 2 2 C0.81304397 6.77625421 -0.69779215 11.2920341 -5 14 C-13.14039664 15.66118894 -21.78080188 14.7167104 -30 14 C-30 13.67 -30 13.34 -30 13 C-22.08 13 -14.16 13 -6 13 C-5.67 11.35 -5.34 9.7 -5 8 C-3.80859375 5.76171875 -3.80859375 5.76171875 -2.4375 3.6875 C-1.98246094 2.99011719 -1.52742188 2.29273438 -1.05859375 1.57421875 C-0.70925781 1.05472656 -0.35992187 0.53523438 0 0 Z " fill="#A84A2D" transform="translate(438,318)"/>
<path d="M0 0 C0.33 0.66 0.66 1.32 1 2 C-0.2222614 4.68661322 -1.49656601 7.27026688 -2.875 9.875 C-3.62608945 11.30796588 -4.3736097 12.74280941 -5.1171875 14.1796875 C-5.45347168 14.81632324 -5.78975586 15.45295898 -6.13623047 16.10888672 C-7.02450525 18.05365112 -7.54730474 19.91459541 -8 22 C-8.66 22 -9.32 22 -10 22 C-10.33 22.99 -10.66 23.98 -11 25 C-10.81548611 15.58979169 -5.74300859 7.25803539 0 0 Z " fill="#AE573A" transform="translate(344,616)"/>
<path d="M0 0 C0.66 0.33 1.32 0.66 2 1 C1.06725891 2.12894876 0.12859878 3.25300876 -0.8125 4.375 C-1.33457031 5.00148438 -1.85664063 5.62796875 -2.39453125 6.2734375 C-4 8 -4 8 -7 10 C-7.99 10 -8.98 10 -10 10 C-10.2475 10.61875 -10.495 11.2375 -10.75 11.875 C-12.20628639 14.35068687 -13.37812506 14.95125002 -16 16 C-16.33 15.34 -16.66 14.68 -17 14 C-16.27554687 13.40832031 -15.55109375 12.81664062 -14.8046875 12.20703125 C-9.85195909 8.15900123 -4.90312066 4.10802001 0 0 Z " fill="#AC5234" transform="translate(284,534)"/>
<path d="M0 0 C0.66 0.33 1.32 0.66 2 1 C-0.475 4.465 -0.475 4.465 -3 8 C-2.34 8.33 -1.68 8.66 -1 9 C-1 9.66 -1 10.32 -1 11 C-4.3 10.34 -7.6 9.68 -11 9 C-11 8.34 -11 7.68 -11 7 C-8.6640625 5.23828125 -8.6640625 5.23828125 -5.625 3.3125 C-4.62726562 2.66925781 -3.62953125 2.02601563 -2.6015625 1.36328125 C-1.74304688 0.91339844 -0.88453125 0.46351563 0 0 Z " fill="#AB563A" transform="translate(720,504)"/>
<path d="M0 0 C0 0.66 0 1.32 0 2 C-1.2065625 2.5259375 -1.2065625 2.5259375 -2.4375 3.0625 C-6.3958027 5.00858677 -9.65339637 7.78671845 -13.046875 10.57421875 C-15 12 -15 12 -17 12 C-17 12.66 -17 13.32 -17 14 C-17.66 13.67 -18.32 13.34 -19 13 C-14.47424876 7.04506416 -8.00611865 0 0 0 Z " fill="#AA5A3E" transform="translate(739,369)"/>
<path d="M0 0 C0.84496027 3.11579101 1 5.7736087 1 9 C1.21527344 9.60328125 1.43054688 10.2065625 1.65234375 10.828125 C2.14795524 13.92430465 1.03183504 15.52635457 -0.4375 18.25 C-0.91058594 19.14203125 -1.38367188 20.0340625 -1.87109375 20.953125 C-2.24363281 21.62859375 -2.61617187 22.3040625 -3 23 C-4.01498547 19.82540369 -3.94466465 17.69122329 -3.22265625 14.453125 C-3.03896484 13.60878906 -2.85527344 12.76445313 -2.66601562 11.89453125 C-2.46685547 11.02183594 -2.26769531 10.14914062 -2.0625 9.25 C-1.86720703 8.36183594 -1.67191406 7.47367188 -1.47070312 6.55859375 C-0.98838288 4.37050678 -0.49790968 2.1845827 0 0 Z " fill="#A8553C" transform="translate(243,583)"/>
<path d="M0 0 C0.66 0.66 1.32 1.32 2 2 C-3 7 -8 12 -13 17 C-12.125 12.25 -12.125 12.25 -11 10 C-10.34 10 -9.68 10 -9 10 C-8.74476563 9.40703125 -8.48953125 8.8140625 -8.2265625 8.203125 C-6.88183502 5.78775462 -5.50785633 4.48788294 -3.375 2.75 C-2.74335938 2.22921875 -2.11171875 1.7084375 -1.4609375 1.171875 C-0.73777344 0.59179688 -0.73777344 0.59179688 0 0 Z " fill="#AA4D32" transform="translate(300,437)"/>
<path d="M0 0 C8 9.42857143 8 9.42857143 8 14 C7.34 14 6.68 14 6 14 C6 13.34 6 12.68 6 12 C5.443125 11.773125 4.88625 11.54625 4.3125 11.3125 C1.36753316 9.64103234 -0.68156544 7.44723648 -3 5 C-2.34 4.67 -1.68 4.34 -1 4 C-0.34786708 1.97536745 -0.34786708 1.97536745 0 0 Z " fill="#AF6144" transform="translate(760,527)"/>
<path d="M0 0 C0 0.66 0 1.32 0 2 C-0.99 2 -1.98 2 -3 2 C-3 2.66 -3 3.32 -3 4 C-3.639375 4.28875 -4.27875 4.5775 -4.9375 4.875 C-7.15206079 5.82823451 -7.15206079 5.82823451 -8 8 C-13.75 6.125 -13.75 6.125 -16 5 C-16 4.34 -16 3.68 -16 3 C-15.15695312 2.86722656 -14.31390625 2.73445312 -13.4453125 2.59765625 C-12.34960938 2.42105469 -11.25390625 2.24445312 -10.125 2.0625 C-8.48917969 1.80146484 -8.48917969 1.80146484 -6.8203125 1.53515625 C-4.32604896 1.06186802 -2.49236265 0 0 0 Z " fill="#B0664C" transform="translate(550,737)"/>
<path d="M0 0 C1.74028734 3.10765596 2.51314066 5.9363049 3.125 9.4375 C3.29257812 10.36433594 3.46015625 11.29117188 3.6328125 12.24609375 C3.98273843 14.87053825 4.06716891 17.35642353 4 20 C-2.22637195 12.29115854 -2.22637195 12.29115854 -1.7421875 7.390625 C-1.24221207 4.89778975 -0.67336881 2.45125625 0 0 Z " fill="#AB5F44" transform="translate(771,587)"/>
<path d="M0 0 C0.99 0.33 1.98 0.66 3 1 C1.45151269 2.20571536 -0.11444206 3.38902174 -1.6875 4.5625 C-2.99267578 5.55443359 -2.99267578 5.55443359 -4.32421875 6.56640625 C-7 8 -7 8 -9.6875 7.84375 C-12.55035653 6.79919424 -14.01706103 5.2767077 -16 3 C-15.14728516 3.17789062 -15.14728516 3.17789062 -14.27734375 3.359375 C-7.93997886 4.4173658 -5.34373258 3.41998885 0 0 Z " fill="#AC553A" transform="translate(661,295)"/>
<path d="M0 0 C0.66 0 1.32 0 2 0 C-0.52225804 8.07122571 -6.49711406 13.92082281 -13 19 C-13.33 18.01 -13.66 17.02 -14 16 C-13.071875 15.87625 -13.071875 15.87625 -12.125 15.75 C-9.81562433 15.18741541 -9.81562433 15.18741541 -8.75 12.9375 C-8.5025 12.298125 -8.255 11.65875 -8 11 C-7.34 11 -6.68 11 -6 11 C-5.7525 10.29875 -5.505 9.5975 -5.25 8.875 C-3.82819762 5.60485452 -2.12753712 2.858878 0 0 Z " fill="#AD5233" transform="translate(761,434)"/>
<path d="M0 0 C0.5775 0.226875 1.155 0.45375 1.75 0.6875 C1.18152344 1.1 0.61304688 1.5125 0.02734375 1.9375 C-5.44794328 6.03253938 -9.95568312 10.37138424 -14.25 15.6875 C-15.01171875 13.97265625 -15.01171875 13.97265625 -15.25 11.6875 C-13.51953125 9.43359375 -13.51953125 9.43359375 -11.0625 7.125 C-10.26457031 6.36058594 -9.46664062 5.59617187 -8.64453125 4.80859375 C-7.85433594 4.10863281 -7.06414063 3.40867187 -6.25 2.6875 C-5.57324219 2.08035156 -4.89648438 1.47320312 -4.19921875 0.84765625 C-2.25 -0.3125 -2.25 -0.3125 0 0 Z " fill="#AE543A" transform="translate(730.25,365.3125)"/>
<path d="M0 0 C0.33 0 0.66 0 1 0 C1.86660295 6.24348033 -0.97682434 9.58798246 -4.5 14.375 C-5.28697266 15.47908203 -5.28697266 15.47908203 -6.08984375 16.60546875 C-7.38096606 18.41303999 -8.68428315 20.21029425 -10 22 C-10.58203125 20.140625 -10.58203125 20.140625 -11 18 C-9.6875 15.75 -9.6875 15.75 -8 14 C-7.34 14 -6.68 14 -6 14 C-5.88785156 13.44828125 -5.77570313 12.8965625 -5.66015625 12.328125 C-4.88639227 9.59934789 -3.73182306 7.27227057 -2.4375 4.75 C-1.98246094 3.85796875 -1.52742188 2.9659375 -1.05859375 2.046875 C-0.70925781 1.37140625 -0.35992187 0.6959375 0 0 Z " fill="#AC4F38" transform="translate(301,583)"/>
<path d="M0 0 C0.99 0.33 1.98 0.66 3 1 C2.67 5.29 2.34 9.58 2 14 C-2.875 9.375 -2.875 9.375 -4 6 C-3.01 5.67 -2.02 5.34 -1 5 C-0.67 3.35 -0.34 1.7 0 0 Z " fill="#A3492E" transform="translate(673,601)"/>
<path d="M0 0 C0.33 0 0.66 0 1 0 C1 11.22 1 22.44 1 34 C0.01 33.67 -0.98 33.34 -2 33 C-1.67 32.01 -1.34 31.02 -1 30 C-0.84854901 27.7174301 -0.75113021 25.43112294 -0.68359375 23.14453125 C-0.66281265 22.48289474 -0.64203156 21.82125824 -0.62062073 21.13957214 C-0.55535273 19.03065148 -0.49634656 16.92160865 -0.4375 14.8125 C-0.39429311 13.38084685 -0.35067812 11.94920596 -0.30664062 10.51757812 C-0.19969494 7.01184846 -0.09836359 3.50598214 0 0 Z " fill="#A84124" transform="translate(350,478)"/>
<path d="M0 0 C7.59 0 15.18 0 23 0 C23 0.33 23 0.66 23 1 C12.605 1.495 12.605 1.495 2 2 C1.67 3.32 1.34 4.64 1 6 C0.67 4.02 0.34 2.04 0 0 Z " fill="#9D3B1F" transform="translate(673,568)"/>
<path d="M0 0 C-3.26714042 2.17809362 -6.6750176 3.89165864 -10.1875 5.625 C-10.84169922 5.94984375 -11.49589844 6.2746875 -12.16992188 6.609375 C-13.77904812 7.4080654 -15.38940455 8.20427649 -17 9 C-17 8.01 -17 7.02 -17 6 C-11.375 3 -11.375 3 -8 3 C-8 2.34 -8 1.68 -8 1 C-5.29120665 -0.35439668 -2.99066732 -0.06501451 0 0 Z " fill="#A94E30" transform="translate(275,520)"/>
<path d="M0 0 C0.66 0.99 1.32 1.98 2 3 C-0.63411025 7.44775994 -3.0963126 11.53005564 -7 15 C-7.66 14.67 -8.32 14.34 -9 14 C-8.15115234 12.86111328 -8.15115234 12.86111328 -7.28515625 11.69921875 C-6.18494141 10.20841797 -6.18494141 10.20841797 -5.0625 8.6875 C-4.33160156 7.70136719 -3.60070312 6.71523438 -2.84765625 5.69921875 C-0.87469344 3.08228137 -0.87469344 3.08228137 0 0 Z " fill="#AE5C3F" transform="translate(677,284)"/>
<path d="M0 0 C3 4 3 4 3.07421875 6.578125 C2.94660156 7.45984375 2.81898438 8.3415625 2.6875 9.25 C2.50767578 10.58804688 2.50767578 10.58804688 2.32421875 11.953125 C2.21722656 12.62859375 2.11023438 13.3040625 2 14 C1.01 14 0.02 14 -1 14 C-0.67 9.38 -0.34 4.76 0 0 Z " fill="#B35E43" transform="translate(667,680)"/>
<path d="M0 0 C0.99 0.33 1.98 0.66 3 1 C2.01 1.33 1.02 1.66 0 2 C-0.66 5.3 -1.32 8.6 -2 12 C-1.34 12 -0.68 12 0 12 C0 12.66 0 13.32 0 14 C-1.65 14 -3.3 14 -5 14 C-4.03603575 8.79459302 -3.12319499 4.40086567 0 0 Z " fill="#B7664C" transform="translate(631,623)"/>
<path d="M0 0 C0.66 0.33 1.32 0.66 2 1 C0.52504318 3.33609323 -0.95468745 5.66890167 -2.4375 8 C-2.85837891 8.66773438 -3.27925781 9.33546875 -3.71289062 10.0234375 C-4.78188817 11.69962565 -5.88802605 13.35200837 -7 15 C-7.33 15 -7.66 15 -8 15 C-8.39190361 11.60146088 -8.15423648 10.23583033 -6.25 7.32421875 C-5.5075 6.45410156 -4.765 5.58398438 -4 4.6875 C-2.88625 3.36298828 -2.88625 3.36298828 -1.75 2.01171875 C-1.1725 1.34785156 -0.595 0.68398438 0 0 Z " fill="#A84A33" transform="translate(280,616)"/>
<path d="M0 0 C0.66 0 1.32 0 2 0 C2.28125 2.19921875 2.28125 2.19921875 2 5 C0.03125 7.45703125 0.03125 7.45703125 -2.5 9.8125 C-3.3353125 10.60269531 -4.170625 11.39289062 -5.03125 12.20703125 C-5.6809375 12.79871094 -6.330625 13.39039063 -7 14 C-7.33 13.01 -7.66 12.02 -8 11 C-6.71034824 9.62437146 -5.37310707 8.29233607 -4 7 C-3.34 7 -2.68 7 -2 7 C-1.34 4.69 -0.68 2.38 0 0 Z " fill="#AA5035" transform="translate(349,599)"/>
<path d="M0 0 C0.33 0 0.66 0 1 0 C1.08636719 0.80824219 1.17273438 1.61648438 1.26171875 2.44921875 C2.11424905 8.93314189 2.6545992 12.75109167 8 17 C8.33 17.99 8.66 18.98 9 20 C4.61144323 18.27592413 2.08513063 15.17026127 0 11 C-0.07033769 9.12620395 -0.0843022 7.24998898 -0.0625 5.375 C-0.05347656 4.37210937 -0.04445313 3.36921875 -0.03515625 2.3359375 C-0.02355469 1.56507813 -0.01195312 0.79421875 0 0 Z " fill="#A95135" transform="translate(400,410)"/>
<path d="M0 0 C1.16691444 3.48419134 0.85285758 6.10222787 0.1875 9.6875 C-0.06966797 11.14736328 -0.06966797 11.14736328 -0.33203125 12.63671875 C-0.55246094 13.41660156 -0.77289062 14.19648437 -1 15 C-1.99 15.495 -1.99 15.495 -3 16 C-3.33 12.04 -3.66 8.08 -4 4 C-3.01 3.67 -2.02 3.34 -1 3 C-0.67 2.01 -0.34 1.02 0 0 Z " fill="#A8604C" transform="translate(752,654)"/>
<path d="M0 0 C1.32 0.33 2.64 0.66 4 1 C3.01 1.495 3.01 1.495 2 2 C1.08719862 4.57437581 1.08719862 4.57437581 0.375 7.5625 C0.11460937 8.57441406 -0.14578125 9.58632813 -0.4140625 10.62890625 C-0.60742188 11.41136719 -0.80078125 12.19382812 -1 13 C-1.66 13 -2.32 13 -3 13 C-3 13.66 -3 14.32 -3 15 C-3.66 14.67 -4.32 14.34 -5 14 C-3.45730076 9.27934033 -1.92205381 4.58335908 0 0 Z " fill="#B16449" transform="translate(322,420)"/>
<path d="M0 0 C3.36016893 1.12005631 4.69064913 2.37211797 7 5 C7 5.66 7 6.32 7 7 C7.66 7 8.32 7 9 7 C8.67 8.32 8.34 9.64 8 11 C6.66072279 9.54712339 5.32873153 8.08752741 4 6.625 C3.2575 5.81289063 2.515 5.00078125 1.75 4.1640625 C0 2 0 2 0 0 Z " fill="#AE5438" transform="translate(360,717)"/>
<path d="M0 0 C-1.32693699 1.00847211 -2.66256277 2.00549539 -4 3 C-4.5671875 3.44472656 -5.134375 3.88945313 -5.71875 4.34765625 C-6.3271875 4.81042969 -6.935625 5.27320313 -7.5625 5.75 C-8.14128906 6.19859375 -8.72007812 6.6471875 -9.31640625 7.109375 C-9.87199219 7.40328125 -10.42757813 7.6971875 -11 8 C-11.99 7.67 -12.98 7.34 -14 7 C-9.82547171 2.51624739 -6.36062509 -0.54519644 0 0 Z " fill="#AD583D" transform="translate(367,641)"/>
<path d="M0 0 C0.33 0 0.66 0 1 0 C0.43393721 4.69023454 -0.18537505 9.34500026 -1 14 C-1.66 13.34 -2.32 12.68 -3 12 C-2.63723355 9.17042171 -1.90305236 6.70915709 -1 4 C-2.65 4.66 -4.3 5.32 -6 6 C-4 4 -2 2 0 0 Z " fill="#B2644B" transform="translate(455,275)"/>
<path d="M0 0 C0.99 0 1.98 0 3 0 C2.40716379 3.39192363 1.23256811 5.2107757 -1.0625 7.75 C-1.61035156 8.36359375 -2.15820312 8.9771875 -2.72265625 9.609375 C-3.14417969 10.06828125 -3.56570313 10.5271875 -4 11 C-4.33 10.34 -4.66 9.68 -5 9 C-4.00390625 6.8359375 -4.00390625 6.8359375 -2.5625 4.375 C-2.08941406 3.55773437 -1.61632812 2.74046875 -1.12890625 1.8984375 C-0.75636719 1.27195312 -0.38382813 0.64546875 0 0 Z " fill="#A76349" transform="translate(694,716)"/>
<path d="M0 0 C0.66 0.66 1.32 1.32 2 2 C-0.64 5.63 -3.28 9.26 -6 13 C-6.33 12.01 -6.66 11.02 -7 10 C-6.34 10 -5.68 10 -5 10 C-4.9175 9.46375 -4.835 8.9275 -4.75 8.375 C-3.73623902 5.1647569 -1.92839451 2.73707608 0 0 Z " fill="#AD5337" transform="translate(660,706)"/>
<path d="M0 0 C0.66 1.32 1.32 2.64 2 4 C1.21654285 5.17219543 0.42297164 6.33763668 -0.375 7.5 C-0.81585937 8.1496875 -1.25671875 8.799375 -1.7109375 9.46875 C-2.13632812 9.9740625 -2.56171875 10.479375 -3 11 C-3.66 11 -4.32 11 -5 11 C-3.55049545 7.2089881 -1.84827434 3.6125362 0 0 Z " fill="#AF573B" transform="translate(691,434)"/>
<path d="M0 0 C0.99 0.66 1.98 1.32 3 2 C2.3503125 2.804375 2.3503125 2.804375 1.6875 3.625 C-0.20687603 6.29115885 -1.59312806 9.05226832 -3 12 C-3.66 12 -4.32 12 -5 12 C-3.68938409 7.76570244 -2.05643741 3.92592596 0 0 Z " fill="#B45B3F" transform="translate(697,422)"/>
<path d="M0 0 C2.64 0.33 5.28 0.66 8 1 C8 1.33 8 1.66 8 2 C6.02 2 4.04 2 2 2 C1.896875 2.94875 1.79375 3.8975 1.6875 4.875 C1 8 1 8 -2 10 C-1.34 6.7 -0.68 3.4 0 0 Z " fill="#B56B53" transform="translate(681,270)"/>
<path d="M0 0 C-1.10789408 3.32368224 -1.48436217 3.61563093 -4.375 5.25 C-5.28378906 5.78367187 -5.28378906 5.78367187 -6.2109375 6.328125 C-8 7 -8 7 -11 6 C-3.6 0 -3.6 0 0 0 Z " fill="#AC5538" transform="translate(716,621)"/>
<path d="M0 0 C4.571279 0.54855348 8.67435795 1.41744803 13 3 C13 3.33 13 3.66 13 4 C7.66404866 4.27131956 4.38616179 4.4266889 0 1 C0 0.67 0 0.34 0 0 Z " fill="#B05C3E" transform="translate(679,393)"/>
<path d="M0 0 C0 4.17561407 -1.83352478 5.53957787 -4.5 8.6875 C-5.3353125 9.68136719 -6.170625 10.67523438 -7.03125 11.69921875 C-8.00578125 12.83810547 -8.00578125 12.83810547 -9 14 C-9 10.23896029 -7.95225128 9.32044189 -5.625 6.4375 C-4.99851562 5.65246094 -4.37203125 4.86742187 -3.7265625 4.05859375 C-2 2 -2 2 0 0 Z " fill="#B46146" transform="translate(297,298)"/>
<path d="M0 0 C0.99 0.33 1.98 0.66 3 1 C-1.296875 5.00390625 -1.296875 5.00390625 -3 6 C-5.203125 5.65234375 -5.203125 5.65234375 -7 5 C-5.90554162 4.13342884 -4.79902219 3.28207276 -3.6875 2.4375 C-3.07261719 1.96183594 -2.45773437 1.48617188 -1.82421875 0.99609375 C-1.22222656 0.66738281 -0.62023437 0.33867187 0 0 Z " fill="#AA4F30" transform="translate(667,299)"/>
<path d="M0 0 C0.66 0 1.32 0 2 0 C1.40895235 4.84659077 0.02055843 8.60748167 -2 13 C-2.33 13 -2.66 13 -3 13 C-2.45144652 8.428721 -1.58255197 4.32564205 0 0 Z " fill="#AC563E" transform="translate(673,274)"/>
<path d="M0 0 C0.66 0.66 1.32 1.32 2 2 C1.9765625 5.2578125 1.9765625 5.2578125 1.625 9.125 C1.51414062 10.40632812 1.40328125 11.68765625 1.2890625 13.0078125 C1.19367188 13.99523437 1.09828125 14.98265625 1 16 C0.67 16 0.34 16 0 16 C-0.91397824 10.31302429 -0.91397824 5.68697571 0 0 Z " fill="#B76850" transform="translate(418,688)"/>
<path d="M0 0 C3.80881639 1.44472346 5.29742886 3.32603071 7 7 C6.67 7.99 6.34 8.98 6 10 C4.99421411 8.71283353 3.99553202 7.42011342 3 6.125 C2.443125 5.40570312 1.88625 4.68640625 1.3125 3.9453125 C0 2 0 2 0 0 Z " fill="#A74B2C" transform="translate(732,615)"/>
<path d="M0 0 C0.66 0.66 1.32 1.32 2 2 C-0.31 5.3 -2.62 8.6 -5 12 C-5.33 10.68 -5.66 9.36 -6 8 C-4.1875 5.25 -4.1875 5.25 -2 3 C-1.34 3 -0.68 3 0 3 C0 2.01 0 1.02 0 0 Z " fill="#AD4F38" transform="translate(288,604)"/>
<path d="M0 0 C1.23556641 0.01740234 1.23556641 0.01740234 2.49609375 0.03515625 C3.32238281 0.04417969 4.14867187 0.05320312 5 0.0625 C5.63808594 0.07410156 6.27617187 0.08570313 6.93359375 0.09765625 C6.93359375 0.42765625 6.93359375 0.75765625 6.93359375 1.09765625 C4.95359375 1.09765625 2.97359375 1.09765625 0.93359375 1.09765625 C0.93359375 2.74765625 0.93359375 4.39765625 0.93359375 6.09765625 C-0.05640625 6.59265625 -0.05640625 6.59265625 -1.06640625 7.09765625 C-1.72640625 5.11765625 -2.38640625 3.13765625 -3.06640625 1.09765625 C-2.06640625 0.09765625 -2.06640625 0.09765625 0 0 Z " fill="#B9735B" transform="translate(281.06640625,460.90234375)"/>
<path d="M0 0 C0.33 0 0.66 0 1 0 C1 3.63 1 7.26 1 11 C0.67 11 0.34 11 0 11 C-0.33 12.65 -0.66 14.3 -1 16 C-1.33 16 -1.66 16 -2 16 C-2.20674944 10.21101581 -1.59162079 5.57067277 0 0 Z " fill="#B16149" transform="translate(256,385)"/>
<path d="M0 0 C-1.29323107 2.58646214 -2.25699997 2.63668534 -4.9375 3.5625 C-7.03793267 4.29822324 -9.00802626 5.00401313 -11 6 C-11 4.68 -11 3.36 -11 2 C-7.17679443 0.57741188 -4.08718695 -0.24042276 0 0 Z " fill="#AD5C41" transform="translate(387,295)"/>
<path d="M0 0 C0.66 0 1.32 0 2 0 C2.33 3.3 2.66 6.6 3 10 C2.01 10.33 1.02 10.66 0 11 C0 7.37 0 3.74 0 0 Z " fill="#A74427" transform="translate(345,683)"/>
<path d="M0 0 C-1.66751148 3.94139078 -4.22710649 6.7892812 -7 10 C-7.33 9.01 -7.66 8.02 -8 7 C-6.85546875 5.17578125 -6.85546875 5.17578125 -5.1875 3.3125 C-4.37345703 2.37857422 -4.37345703 2.37857422 -3.54296875 1.42578125 C-2 0 -2 0 0 0 Z " fill="#A5432A" transform="translate(354,648)"/>
<path d="M0 0 C0.33 0 0.66 0 1 0 C1.43177893 6.26079448 0.92739438 9.09075703 -3 14 C-3.33 13.01 -3.66 12.02 -4 11 C-3.34 10.01 -2.68 9.02 -2 8 C-1.33841957 5.95415921 -1.33841957 5.95415921 -0.875 3.8125 C-0.58625 2.554375 -0.2975 1.29625 0 0 Z " fill="#BB6A51" transform="translate(429,413)"/>
<path d="M0 0 C2.38672669 2.96283313 4.7353371 5.94270509 7 9 C6.67 9.66 6.34 10.32 6 11 C4.79794536 9.93283928 3.61367667 8.84561663 2.4375 7.75 C1.77621094 7.14671875 1.11492187 6.5434375 0.43359375 5.921875 C-1 4 -1 4 -0.71484375 1.765625 C-0.47894531 1.18296875 -0.24304688 0.6003125 0 0 Z " fill="#AC7056" transform="translate(319,717)"/>
<path d="M0 0 C0.33 0 0.66 0 1 0 C0.85892253 1.45880109 0.71197585 2.91703551 0.5625 4.375 C0.48128906 5.18710937 0.40007813 5.99921875 0.31640625 6.8359375 C0 9 0 9 -1 11 C-1.66 11 -2.32 11 -3 11 C-2.69217504 9.35328588 -2.37860766 7.70764424 -2.0625 6.0625 C-1.88847656 5.14597656 -1.71445312 4.22945312 -1.53515625 3.28515625 C-1 1 -1 1 0 0 Z " fill="#A24125" transform="translate(718,677)"/>
<path d="M0 0 C-4.95 2.97 -4.95 2.97 -10 6 C-9 2 -9 2 -6.125 0.1875 C-3 -1 -3 -1 0 0 Z " fill="#AC5136" transform="translate(719,490)"/>
<path d="M0 0 C3.3 0 6.6 0 10 0 C9.39816251 2.02045442 8.72693904 4.02111039 8 6 C7.01 6.495 7.01 6.495 6 7 C6.33 5.02 6.66 3.04 7 1 C4.69 1 2.38 1 0 1 C0 0.67 0 0.34 0 0 Z " fill="#AD5539" transform="translate(736,462)"/>
<path d="M0 0 C0.66 0.66 1.32 1.32 2 2 C-0.31 4.31 -2.62 6.62 -5 9 C-5.66 8.01 -6.32 7.02 -7 6 C-4.69 4.02 -2.38 2.04 0 0 Z " fill="#B35E43" transform="translate(300,437)"/>
<path d="M0 0 C2.475 0.99 2.475 0.99 5 2 C5 2.66 5 3.32 5 4 C5.99 4 6.98 4 8 4 C8.33 4.99 8.66 5.98 9 7 C5.59687262 5.94124926 2.98646769 4.99097846 0 3 C0 2.01 0 1.02 0 0 Z " fill="#AE5E42" transform="translate(709,428)"/>
<path d="M0 0 C0.66 0.66 1.32 1.32 2 2 C1.34 4.31 0.68 6.62 0 9 C-0.66 9 -1.32 9 -2 9 C-2.66 7.35 -3.32 5.7 -4 4 C-3.01 3.67 -2.02 3.34 -1 3 C-0.67 2.01 -0.34 1.02 0 0 Z " fill="#AB5237" transform="translate(340,664)"/>
<path d="M0 0 C-1.4096347 0.70180531 -2.82807641 1.38593958 -4.25 2.0625 C-5.03890625 2.44535156 -5.8278125 2.82820312 -6.640625 3.22265625 C-9.25993522 4.08564091 -10.44855176 3.93045933 -13 3 C-11.5903653 2.29819469 -10.17192359 1.61406042 -8.75 0.9375 C-7.96109375 0.55464844 -7.1721875 0.17179688 -6.359375 -0.22265625 C-3.74006478 -1.08564091 -2.55144824 -0.93045933 0 0 Z " fill="#B6684D" transform="translate(608,647)"/>
<path d="M0 0 C0 0.66 0 1.32 0 2 C-1.32 2 -2.64 2 -4 2 C-4.2475 2.639375 -4.495 3.27875 -4.75 3.9375 C-6 6 -6 6 -8.125 6.75 C-9.053125 6.87375 -9.053125 6.87375 -10 7 C-4.34042553 0 -4.34042553 0 0 0 Z " fill="#B76B54" transform="translate(297,573)"/>
<path d="M0 0 C0 0.66 0 1.32 0 2 C-2.81769349 4.17364926 -4.2190681 5.08677021 -7.8125 4.6875 C-8.534375 4.460625 -9.25625 4.23375 -10 4 C-4 0 -4 0 0 0 Z " fill="#B05B40" transform="translate(288,502)"/>
<path d="M0 0 C0.66 0.66 1.32 1.32 2 2 C-4.625 6 -4.625 6 -8 6 C-8 5.34 -8 4.68 -8 4 C-5.36 2.68 -2.72 1.36 0 0 Z " fill="#B0553A" transform="translate(700,498)"/>
<path d="M0 0 C0.99 0.33 1.98 0.66 3 1 C3.33 1.99 3.66 2.98 4 4 C2.35 5.32 0.7 6.64 -1 8 C-0.67 5.36 -0.34 2.72 0 0 Z " fill="#AB5E45" transform="translate(530,723)"/>
<path d="M0 0 C0.66 0.33 1.32 0.66 2 1 C-1.17320782 4.53586014 -3.16743695 6.58578031 -8 7 C-5.42215154 4.35247996 -3.08351902 2.05567935 0 0 Z " fill="#AD5A3C" transform="translate(365,651)"/>
<path d="M0 0 C0.66 0 1.32 0 2 0 C0.98823563 3.40320742 0.35156418 4.75725331 -2.625 6.8125 C-3.40875 7.204375 -4.1925 7.59625 -5 8 C-5.33 7.34 -5.66 6.68 -6 6 C-4 4 -2 2 0 0 Z " fill="#A54C31" transform="translate(427,585)"/>
<path d="M0 0 C0.66 0 1.32 0 2 0 C2.1875 2.875 2.1875 2.875 2 6 C1.01 6.66 0.02 7.32 -1 8 C-1.93065133 5.39417629 -2.14917407 4.35801776 -1.0625 1.75 C-0.711875 1.1725 -0.36125 0.595 0 0 Z " fill="#A74223" transform="translate(769,587)"/>
<path d="M0 0 C1.32 0.33 2.64 0.66 4 1 C2.68 1.33 1.36 1.66 0 2 C-0.33 3.98 -0.66 5.96 -1 8 C-1.99 8.33 -2.98 8.66 -4 9 C-2.94124926 5.59687262 -1.99097846 2.98646769 0 0 Z " fill="#B15E43" transform="translate(717,573)"/>
<path d="M0 0 C1.98 0.99 1.98 0.99 4 2 C3.67 4.64 3.34 7.28 3 10 C2.67 8.68 2.34 7.36 2 6 C1.34 6 0.68 6 0 6 C0 4.02 0 2.04 0 0 Z " fill="#E8D7CB" transform="translate(710,531)"/>
<path d="M0 0 C4.85077588 1.11940982 7.777893 2.1334716 11 6 C9.35 5.67 7.7 5.34 6 5 C6 4.34 6 3.68 6 3 C4.35 3 2.7 3 1 3 C0.67 2.01 0.34 1.02 0 0 Z " fill="#A84D32" transform="translate(286,369)"/>
<path d="M0 0 C1.39864092 3.17872935 0.89282517 4.30111022 -0.3125 7.6875 C-2 11 -2 11 -4 12 C-3.52309796 10.37433394 -3.04340334 8.74948689 -2.5625 7.125 C-2.29566406 6.22007812 -2.02882813 5.31515625 -1.75390625 4.3828125 C-1 2 -1 2 0 0 Z " fill="#B86A50" transform="translate(279,324)"/>
<path d="M0 0 C1.32 0.33 2.64 0.66 4 1 C3.34 1 2.68 1 2 1 C1.34 2.32 0.68 3.64 0 5 C-0.66 5 -1.32 5 -2 5 C-2.33 5.99 -2.66 6.98 -3 8 C-3.66 7.67 -4.32 7.34 -5 7 C-3.35 4.69 -1.7 2.38 0 0 Z " fill="#AF583D" transform="translate(427,296)"/>
<path d="M0 0 C1.65 1.65 3.3 3.3 5 5 C4.01 5 3.02 5 2 5 C2 6.65 2 8.3 2 10 C-0.09350689 6.5980513 -0.17942163 3.94727588 0 0 Z " fill="#B46D56" transform="translate(569,275)"/>
<path d="M0 0 C3.73487777 0.4979837 5.81237635 0.87491756 9 3 C9 3.66 9 4.32 9 5 C5.22454612 3.90931332 2.52956528 3.0916909 0 0 Z " fill="#AE5334" transform="translate(386,740)"/>
<path d="M0 0 C2.125 0.375 2.125 0.375 4 1 C3.38125 1.598125 2.7625 2.19625 2.125 2.8125 C-0.13676954 5.00811144 -0.13676954 5.00811144 -2 8 C-2.125 5.125 -2.125 5.125 -2 2 C-1.34 1.34 -0.68 0.68 0 0 Z " fill="#AF4D2F" transform="translate(593,651)"/>
<path d="M0 0 C0.99 0.33 1.98 0.66 3 1 C2.38125 1.2475 1.7625 1.495 1.125 1.75 C-1.37818306 3.22246063 -1.83045281 4.41028837 -3 7 C-3.99 7.495 -3.99 7.495 -5 8 C-4.45773019 4.20411134 -2.79872437 2.52788007 0 0 Z " fill="#A54125" transform="translate(260,555)"/>
<path d="M0 0 C0.78375 0.04125 1.5675 0.0825 2.375 0.125 C1.055 0.455 -0.265 0.785 -1.625 1.125 C-1.955 3.435 -2.285 5.745 -2.625 8.125 C-3.285 8.125 -3.945 8.125 -4.625 8.125 C-4.75 5.25 -4.75 5.25 -4.625 2.125 C-2.625 0.125 -2.625 0.125 0 0 Z " fill="#B26B52" transform="translate(307.625,522.875)"/>
<path d="M0 0 C0.66 0.66 1.32 1.32 2 2 C1.67 2.66 1.34 3.32 1 4 C-1.64 4 -4.28 4 -7 4 C-7 3.34 -7 2.68 -7 2 C-4.69 1.34 -2.38 0.68 0 0 Z " fill="#B5684E" transform="translate(413,274)"/>
<path d="M0 0 C1.69141656 0.08963062 3.37959602 0.24577676 5.0625 0.4375 C6.44115234 0.59025391 6.44115234 0.59025391 7.84765625 0.74609375 C8.55792969 0.82988281 9.26820313 0.91367187 10 1 C10 1.33 10 1.66 10 2 C9.38511719 2.03738281 8.77023437 2.07476562 8.13671875 2.11328125 C6.92435547 2.21189453 6.92435547 2.21189453 5.6875 2.3125 C4.88699219 2.37050781 4.08648437 2.42851562 3.26171875 2.48828125 C0.63727666 3.08206694 -0.30820672 3.95780294 -2 6 C-1.125 1.125 -1.125 1.125 0 0 Z " fill="#AF5942" transform="translate(417,269)"/>
<path d="M0 0 C0.79921875 0.00902344 1.5984375 0.01804687 2.421875 0.02734375 C3.02515625 0.03894531 3.6284375 0.05054688 4.25 0.0625 C0.8928124 1.83173062 -1.93311893 2.73765906 -5.75 3.0625 C-6.74 2.4025 -7.73 1.7425 -8.75 1.0625 C-5.75519083 0.1901588 -3.11424089 -0.04579766 0 0 Z " fill="#B05639" transform="translate(385.75,260.9375)"/>
<path d="M0 0 C5.75 -0.125 5.75 -0.125 8 1 C8 1.66 8 2.32 8 3 C5.36 2.67 2.72 2.34 0 2 C0 1.34 0 0.68 0 0 Z " fill="#AF5A3B" transform="translate(319,543)"/>
<path d="M0 0 C0.66 0.33 1.32 0.66 2 1 C-0.475 4.465 -0.475 4.465 -3 8 C-3.66 7.67 -4.32 7.34 -5 7 C-3.70700306 4.11562221 -2.34058637 2.12780579 0 0 Z " fill="#B05B3E" transform="translate(406,403)"/>
<path d="M0 0 C0.66 0 1.32 0 2 0 C0.125 5.875 0.125 5.875 -1 7 C-2.66617115 7.04063832 -4.33388095 7.042721 -6 7 C-5 5 -5 5 -3 4.0625 C-0.65391779 3.1108154 -0.65391779 3.1108154 0 0 Z " fill="#A54427" transform="translate(401,279)"/>
<path d="M0 0 C3.63 0 7.26 0 11 0 C11.66 1.32 12.32 2.64 13 4 C12.01 4.495 12.01 4.495 11 5 C10.34 4.01 9.68 3.02 9 2 C6.80545319 1.42006301 6.80545319 1.42006301 4.375 1.3125 C3.55773437 1.24675781 2.74046875 1.18101562 1.8984375 1.11328125 C1.27195312 1.07589844 0.64546875 1.03851563 0 1 C0 0.67 0 0.34 0 0 Z " fill="#B86F54" transform="translate(611,277)"/>
<path d="M0 0 C2.64 0.33 5.28 0.66 8 1 C8 1.33 8 1.66 8 2 C5.03 2.66 2.06 3.32 -1 4 C-0.67 2.68 -0.34 1.36 0 0 Z " fill="#A84428" transform="translate(551,734)"/>
<path d="M0 0 C2 4 2 4 2 8 C1.34 8 0.68 8 0 8 C-0.33 8.66 -0.66 9.32 -1 10 C-0.67 6.7 -0.34 3.4 0 0 Z " fill="#F3E8E0" transform="translate(303,531)"/>
<path d="M0 0 C1.875 0.3125 1.875 0.3125 4 1 C4.66 1.99 5.32 2.98 6 4 C4.125 4.625 4.125 4.625 2 5 C1.34 4.34 0.68 3.68 0 3 C0 2.01 0 1.02 0 0 Z " fill="#A6492D" transform="translate(304,507)"/>
<path d="M0 0 C0.66 0 1.32 0 2 0 C1.01 2.97 0.02 5.94 -1 9 C-1.66 8.67 -2.32 8.34 -3 8 C-1.125 1.125 -1.125 1.125 0 0 Z " fill="#AD4D32" transform="translate(709,387)"/>
<path d="M0 0 C0.66 0.33 1.32 0.66 2 1 C0.70700306 3.88437779 -0.65941363 5.87219421 -3 8 C-3 4.42424104 -1.91159393 2.94704065 0 0 Z " fill="#B25C41" transform="translate(286,312)"/>
<path d="M0 0 C2.31 0.66 4.62 1.32 7 2 C7.33 3.32 7.66 4.64 8 6 C1.125 2.25 1.125 2.25 0 0 Z " fill="#AC583B" transform="translate(374,732)"/>
<path d="M0 0 C0.33 0.99 0.66 1.98 1 3 C-0.8125 5.6875 -0.8125 5.6875 -3 8 C-3.66 8 -4.32 8 -5 8 C-3.62845496 5.04590299 -2.01136276 2.55991624 0 0 Z " fill="#B35D42" transform="translate(547,693)"/>
<path d="M0 0 C2.09749995 2.35968744 2.96905704 3.54616994 3.1875 6.75 C3.0946875 7.86375 3.0946875 7.86375 3 9 C2.01 8.67 1.02 8.34 0 8 C0 5.36 0 2.72 0 0 Z " fill="#B25E44" transform="translate(299,532)"/>
<path d="M0 0 C5.75 1.75 5.75 1.75 8 4 C7.01 4.33 6.02 4.66 5 5 C5 4.34 5 3.68 5 3 C3.35 3 1.7 3 0 3 C0 2.01 0 1.02 0 0 Z " fill="#A9563D" transform="translate(715,526)"/>
<path d="M0 0 C0.66 0.33 1.32 0.66 2 1 C0.68 2.65 -0.64 4.3 -2 6 C-3.32 5.67 -4.64 5.34 -6 5 C-4.02 3.35 -2.04 1.7 0 0 Z " fill="#AD563A" transform="translate(267,511)"/>
<path d="M0 0 C0.66 0 1.32 0 2 0 C2 0.66 2 1.32 2 2 C2.639375 2.268125 3.27875 2.53625 3.9375 2.8125 C6 4 6 4 7 7 C6.01 7.495 6.01 7.495 5 8 C4.16382818 6.8562364 3.33113541 5.70992861 2.5 4.5625 C2.0359375 3.92441406 1.571875 3.28632813 1.09375 2.62890625 C0 1 0 1 0 0 Z " fill="#A95337" transform="translate(731,446)"/>
<path d="M0 0 C0.75 1.75 0.75 1.75 1 4 C-0.9375 6.25 -0.9375 6.25 -3 8 C-3 4.42424104 -1.91159393 2.94704065 0 0 Z " fill="#AF6244" transform="translate(719,383)"/>
</svg>
