<?xml version="1.0" standalone="no"?>
<!DOCTYPE svg PUBLIC "-//W3C//DTD SVG 20010904//EN"
 "http://www.w3.org/TR/2001/REC-SVG-20010904/DTD/svg10.dtd">
<svg version="1.0" xmlns="http://www.w3.org/2000/svg"
 width="1024.000000pt" height="1024.000000pt" viewBox="0 0 1024.000000 1024.000000"
 preserveAspectRatio="xMidYMid meet">

<g transform="translate(0.000000,1024.000000) scale(0.100000,-0.100000)"
fill="#000000" stroke="none">
<path d="M3980 7650 c-120 -17 -224 -41 -345 -81 -157 -51 -152 -47 -136 -101
28 -94 80 -165 156 -218 63 -43 90 -47 110 -16 11 17 33 30 61 37 26 7 46 18
49 29 13 40 47 70 86 76 33 6 43 13 59 44 19 38 41 50 92 50 18 0 31 8 39 23
16 30 28 37 70 37 21 0 42 7 50 16 20 24 78 50 144 65 l60 12 -60 14 c-75 17
-348 25 -435 13z"/>
<path d="M5910 7653 c-136 -22 -157 -35 -75 -46 49 -7 114 -36 134 -61 9 -10
30 -16 57 -16 37 0 47 -5 66 -30 16 -22 30 -30 53 -30 37 0 59 -14 83 -54 13
-21 30 -32 62 -40 38 -9 48 -18 68 -53 19 -34 30 -44 59 -49 22 -4 48 -19 65
-38 l28 -31 45 24 c89 47 185 181 189 264 1 30 -1 31 -92 64 -209 74 -374 103
-582 101 -74 0 -146 -3 -160 -5z"/>
<path d="M3373 7526 c-23 -8 -75 -30 -115 -51 -274 -139 -489 -433 -534 -730
-20 -132 -26 -122 65 -127 167 -10 302 -121 372 -306 l24 -64 69 7 c67 6 234
49 248 63 4 4 9 84 10 177 l3 170 163 3 c89 1 162 -1 162 -5 0 -5 -24 -24 -52
-43 -79 -54 -80 -57 -76 -389 l3 -286 35 -69 c23 -47 31 -71 22 -74 -6 -2 -22
-12 -34 -22 l-23 -18 0 -324 0 -323 26 -55 26 -56 -29 -26 -29 -27 3 -313 c3
-359 3 -354 97 -463 29 -33 72 -102 97 -153 27 -55 50 -92 57 -89 7 3 42 17
78 32 l65 27 95 -30 c226 -72 454 -102 830 -109 372 -7 604 10 874 63 113 22
308 88 384 129 36 19 66 33 69 31 2 -2 -10 -23 -27 -46 -33 -46 -66 -134 -56
-150 3 -5 18 -10 33 -10 41 0 128 -26 188 -55 99 -48 199 -158 235 -257 7 -21
16 -38 19 -38 10 0 49 91 60 140 24 111 4 222 -62 337 -22 39 -61 91 -85 115
l-44 43 -83 0 -84 0 34 46 c66 90 67 100 68 448 l1 314 -26 19 -26 20 26 61
c26 61 26 65 29 357 2 162 1 309 -3 328 -4 24 -15 37 -39 49 l-33 15 31 61 31
60 6 226 c4 124 7 227 8 227 0 1 52 -18 113 -43 117 -47 259 -87 340 -95 l47
-5 26 64 c74 185 217 303 375 310 l65 2 -1 73 c-4 232 -161 519 -375 684 -73
56 -206 127 -276 147 l-51 15 -13 -51 c-40 -171 -157 -291 -346 -356 -57 -19
-65 -19 -110 -6 -31 10 -66 13 -98 9 -48 -5 -54 -4 -94 30 -36 31 -50 36 -92
36 -45 0 -50 3 -74 38 -19 29 -35 41 -71 50 -40 11 -48 18 -61 52 -12 29 -24
42 -49 50 -18 6 -54 30 -79 52 -34 30 -46 37 -42 23 3 -11 8 -38 12 -60 17
-103 106 -306 187 -430 l33 -50 98 -3 97 -3 0 -79 c0 -58 -4 -80 -13 -80 -6 0
-91 11 -187 24 -249 35 -437 46 -798 46 -321 0 -496 -9 -722 -35 -104 -13
-268 -38 -311 -47 -7 -2 -11 27 -12 82 l-2 85 122 3 122 3 57 92 c67 108 115
210 144 304 25 84 40 163 30 163 -3 0 -17 -12 -31 -26 -13 -14 -48 -40 -76
-56 -29 -16 -53 -37 -53 -45 0 -26 -56 -73 -87 -73 -24 0 -34 -8 -52 -40 -21
-38 -24 -40 -73 -40 -44 0 -56 -5 -91 -36 -37 -34 -42 -36 -89 -30 -36 5 -62
2 -94 -10 -37 -14 -51 -15 -91 -5 -85 21 -190 79 -248 135 -61 60 -120 169
-131 242 -3 24 -9 44 -13 43 -3 0 -25 -6 -48 -13z m2317 -871 c282 -26 600
-87 600 -115 0 -24 -228 -70 -486 -99 -610 -70 -1446 -32 -1801 80 -61 19 -35
35 107 68 153 36 454 71 720 85 158 8 702 -4 860 -19z m-1659 -304 c93 -25
275 -56 455 -77 189 -21 823 -30 1061 -15 413 27 656 69 836 146 17 7 18 -4
15 -218 l-3 -225 -31 -39 c-61 -76 -206 -143 -404 -187 -426 -94 -1180 -99
-1620 -10 -185 37 -327 94 -401 161 -68 61 -69 67 -69 307 l0 215 44 -19 c24
-10 77 -28 117 -39z m2349 -1230 c-54 -107 -234 -194 -515 -250 -435 -87
-1068 -85 -1496 5 -202 42 -337 97 -419 171 -80 72 -80 72 -80 398 0 158 3
285 8 283 4 -2 40 -20 80 -41 297 -154 937 -220 1612 -166 340 26 630 97 777
188 l48 30 3 -290 c2 -271 1 -292 -18 -328z m-2482 -240 c132 -92 399 -168
727 -206 192 -22 630 -30 830 -16 413 30 739 107 888 210 25 17 48 31 51 31 3
0 6 -117 6 -260 0 -288 -3 -306 -63 -368 -141 -146 -496 -236 -1027 -261 -589
-28 -1162 75 -1358 244 -76 66 -76 66 -82 373 -3 149 -3 272 -2 272 2 0 16 -8
30 -19z"/>
<path d="M4071 6202 c-88 -47 -93 -184 -10 -245 63 -46 171 -27 211 37 28 45
21 136 -13 172 -52 56 -125 70 -188 36z"/>
<path d="M4062 5420 c-84 -52 -80 -189 7 -247 44 -30 113 -31 159 -3 88 54 87
197 -1 250 -43 27 -121 26 -165 0z"/>
<path d="M4105 4590 c-116 -35 -130 -205 -22 -270 96 -59 217 11 217 125 0
101 -98 174 -195 145z"/>
<path d="M2695 6544 c-103 -53 -163 -202 -152 -379 14 -212 112 -388 264 -472
l40 -23 62 75 c62 75 152 150 209 174 27 11 30 18 36 72 8 71 -8 197 -34 275
-62 179 -193 294 -335 294 -35 0 -73 -7 -90 -16z"/>
<path d="M7390 6551 c-71 -22 -150 -83 -200 -156 -82 -119 -126 -331 -94 -447
3 -9 30 -31 61 -48 65 -37 149 -114 200 -182 l35 -48 51 27 c138 76 230 227
258 429 26 182 -46 372 -158 420 -35 15 -112 17 -153 5z"/>
<path d="M3220 6015 c-6 -15 -15 -47 -21 -71 -10 -39 -18 -48 -58 -69 -76 -38
-148 -101 -207 -180 -54 -74 -56 -75 -99 -75 -54 0 -56 -10 -14 -73 75 -114
314 -273 566 -377 l118 -49 3 266 2 265 -38 42 c-65 71 -91 111 -150 227 -61
120 -84 142 -102 94z"/>
<path d="M6939 5938 c-59 -117 -93 -170 -161 -249 l-48 -56 0 -257 0 -257 23
6 c106 33 330 149 474 247 107 73 181 145 214 210 l19 38 -52 0 c-51 0 -54 2
-75 39 -38 66 -127 154 -197 195 -77 45 -75 42 -101 120 -11 33 -25 61 -32 64
-7 2 -34 -40 -64 -100z"/>
<path d="M2895 5230 c-22 -11 -79 -37 -126 -59 -125 -58 -237 -169 -304 -301
-18 -34 -18 -35 1 -20 10 8 43 36 72 62 97 87 180 123 421 184 74 18 136 35
138 38 4 4 -131 105 -150 111 -7 2 -30 -5 -52 -15z"/>
<path d="M7171 5170 c-47 -31 -69 -51 -60 -54 8 -3 84 -28 170 -56 167 -54
235 -90 344 -184 l60 -51 -29 50 c-95 164 -151 220 -298 295 -53 28 -100 50
-105 49 -4 0 -41 -23 -82 -49z"/>
<path d="M3048 4993 c-13 -15 -14 -28 -5 -81 6 -40 16 -66 26 -72 14 -7 141
-45 424 -126 15 -5 17 3 17 76 0 79 -1 81 -27 91 -23 9 -350 110 -404 125 -9
2 -23 -4 -31 -13z"/>
<path d="M6985 4985 c-22 -7 -88 -28 -147 -46 l-108 -32 0 -90 c0 -67 3 -88
13 -84 6 2 66 21 132 42 223 69 225 70 228 171 l2 49 -40 2 c-22 1 -58 -4 -80
-12z"/>
<path d="M2945 4956 c-60 -26 -337 -254 -399 -327 -55 -65 -105 -189 -132
-327 -8 -43 -17 -88 -20 -102 -2 -14 19 18 47 70 95 175 130 212 391 413 91
70 170 133 176 140 7 8 6 32 -6 80 -9 37 -18 67 -21 67 -3 -1 -19 -7 -36 -14z"/>
<path d="M7150 4944 c0 -15 -5 -45 -12 -67 l-12 -40 44 -40 c25 -22 101 -83
170 -135 239 -182 245 -190 348 -372 52 -93 53 -94 47 -50 -14 105 -40 191
-86 288 -41 84 -62 115 -122 175 -118 118 -319 267 -361 267 -11 0 -16 -9 -16
-26z"/>
<path d="M6823 4563 l-93 -4 0 -84 0 -85 148 0 c97 0 155 5 172 13 35 17 61
73 58 122 l-3 40 -95 1 c-52 0 -137 -1 -187 -3z"/>
<path d="M3033 4543 c-6 -16 5 -71 26 -125 l11 -28 220 0 220 0 0 85 0 85
-235 0 c-210 0 -236 -2 -242 -17z"/>
<path d="M2911 4475 c-71 -65 -246 -342 -278 -442 -20 -61 -20 -328 0 -423
l13 -65 7 83 c17 190 49 292 122 387 78 101 245 348 245 361 0 16 -57 134 -65
134 -3 0 -23 -16 -44 -35z"/>
<path d="M7145 4450 l-29 -60 24 -43 c28 -51 132 -204 213 -312 33 -44 66 -96
75 -115 18 -42 61 -269 62 -325 1 -92 32 41 46 195 8 100 -10 221 -45 295 -50
108 -246 396 -281 415 -30 16 -35 13 -65 -50z"/>
<path d="M3475 4245 c-5 -2 -109 -35 -230 -74 -224 -72 -265 -90 -265 -118 0
-24 86 -103 112 -103 11 0 74 19 139 41 110 38 122 45 156 88 20 25 56 64 80
87 54 51 59 96 8 79z"/>
<path d="M6730 4204 c0 -15 -7 -27 -19 -32 -18 -6 -15 -13 27 -70 l47 -64 120
-39 c66 -21 129 -39 139 -39 26 0 103 46 116 70 19 36 11 51 -42 74 -65 28
-184 68 -300 100 l-88 24 0 -24z"/>
<path d="M3513 4139 c-72 -46 -163 -201 -184 -314 -6 -33 -8 -88 -5 -123 7
-62 39 -167 55 -177 5 -2 23 25 41 62 45 90 145 190 230 230 57 27 91 37 198
59 12 2 22 11 22 18 0 30 -85 180 -124 222 l-43 44 -79 0 c-62 0 -86 -5 -111
-21z"/>
<path d="M2934 3949 c-8 -14 5 -428 17 -507 19 -127 69 -221 194 -362 81 -91
106 -107 66 -43 -35 57 -64 128 -97 238 -24 77 -24 87 -18 270 4 105 4 225 0
268 -9 87 -13 93 -105 127 -34 13 -52 16 -57 9z"/>
<path d="M7113 3929 c-49 -22 -64 -35 -70 -56 -8 -34 -10 -221 -3 -408 5 -134
4 -144 -23 -222 -16 -45 -48 -121 -72 -170 l-45 -88 41 45 c151 166 229 299
249 420 13 84 25 425 16 473 -4 20 -12 37 -19 36 -7 0 -40 -14 -74 -30z"/>
<path d="M6092 3779 c-71 -12 -144 -44 -177 -79 l-27 -28 11 -104 c7 -56 20
-157 30 -223 12 -80 15 -128 9 -145 -14 -38 -48 -69 -83 -76 -27 -5 -34 -12
-44 -44 -14 -48 -53 -80 -97 -80 -29 0 -36 -5 -47 -32 -22 -51 -52 -72 -100
-71 -29 2 -48 -4 -62 -17 -28 -26 -87 -50 -127 -51 -30 -1 -27 -3 39 -35 114
-56 237 -77 418 -71 113 4 168 10 225 26 162 47 338 156 451 278 105 115 179
257 179 344 0 48 -31 146 -63 202 -92 156 -316 242 -535 206z"/>
<path d="M3763 3765 c-148 -41 -242 -131 -293 -280 -50 -147 0 -289 166 -465
90 -96 178 -161 289 -216 141 -69 222 -87 400 -87 168 0 255 17 375 74 l65 31
-59 13 c-42 8 -66 20 -82 38 -18 21 -29 26 -52 21 -41 -8 -90 20 -107 60 -11
27 -22 35 -51 41 -64 12 -104 52 -104 105 0 12 -7 20 -16 20 -31 0 -85 33
-100 62 -14 26 -13 44 10 191 40 260 42 297 17 329 -39 49 -119 71 -271 75
-97 2 -150 -1 -187 -12z"/>
<path d="M5717 3510 c-49 -32 -114 -81 -145 -107 -74 -63 -172 -189 -217 -277
-33 -67 -69 -175 -60 -184 2 -2 18 12 35 32 17 19 47 41 66 48 22 8 37 21 40
35 10 37 60 73 103 73 30 0 40 5 54 30 24 40 70 63 115 58 31 -4 40 0 65 29
16 18 40 36 54 39 14 4 22 12 19 19 -2 7 -10 66 -17 131 -7 66 -15 122 -18
126 -3 4 -46 -20 -94 -52z"/>
<path d="M4316 3538 c-3 -12 -10 -59 -16 -103 -6 -44 -13 -91 -16 -105 -4 -22
1 -29 30 -43 19 -9 45 -30 57 -47 20 -26 29 -30 69 -30 52 0 82 -17 99 -57 10
-25 16 -28 49 -25 50 4 85 -17 98 -58 7 -20 20 -37 35 -42 13 -5 43 -28 67
-51 l44 -42 -7 40 c-29 167 -196 390 -389 519 -108 72 -114 74 -120 44z"/>
</g>
</svg>
